{"glyphs":{"0":{"ha":908,"x_min":0,"x_max":0,"o":"m 454 974 b 866 480 716 974 866 767 b 454 -14 866 192 716 -14 b 42 480 193 -14 42 192 b 454 974 42 767 193 974 m 454 162 b 649 480 580 162 649 289 b 454 798 649 670 580 798 b 259 480 328 798 259 670 b 454 162 259 289 328 162 "},"1":{"ha":614,"x_min":0,"x_max":0,"o":"m 285 959 l 503 959 l 503 0 l 285 0 l 285 614 l 56 614 l 56 796 l 285 796 "},"2":{"ha":829,"x_min":0,"x_max":0,"o":"m 66 0 b 381 465 66 212 143 318 b 578 672 537 561 578 596 b 441 803 578 760 524 803 b 286 654 344 803 298 740 l 62 654 b 458 974 80 848 241 974 b 798 682 639 974 798 879 b 515 338 798 556 725 477 b 332 175 425 278 352 238 l 769 175 l 769 0 "},"3":{"ha":856,"x_min":0,"x_max":0,"o":"m 454 -14 b 70 279 266 -14 83 67 l 295 279 b 447 160 295 193 374 160 b 596 298 537 160 596 208 b 441 427 596 382 543 427 l 358 427 l 358 600 l 431 600 b 568 697 523 600 568 637 b 442 799 568 757 523 799 b 306 697 367 799 314 760 l 96 697 b 455 974 103 895 289 974 b 779 716 641 974 779 878 b 651 521 779 590 697 544 l 651 513 b 813 273 702 500 813 435 b 454 -14 813 82 659 -14 "},"4":{"ha":916,"x_min":0,"x_max":0,"o":"m 736 407 l 861 407 l 861 232 l 736 232 l 736 0 l 518 0 l 518 232 l 56 232 l 56 407 l 503 959 l 736 959 m 528 696 l 524 696 l 294 407 l 518 407 l 518 566 "},"5":{"ha":863,"x_min":0,"x_max":0,"o":"m 281 286 b 424 160 299 195 351 160 b 590 339 513 160 590 209 b 440 513 590 448 537 513 b 295 410 355 513 314 462 l 89 410 l 146 959 l 757 959 l 757 785 l 334 785 l 318 634 l 326 634 b 490 687 361 667 412 687 b 809 341 676 687 809 538 b 435 -14 809 125 650 -14 b 56 286 175 -14 73 156 "},"6":{"ha":871,"x_min":0,"x_max":0,"o":"m 444 -14 b 56 465 209 -14 56 185 b 447 974 56 753 196 974 b 809 716 619 974 760 871 l 583 716 b 454 798 567 763 515 798 b 273 547 341 798 273 682 l 282 547 b 494 667 312 601 382 667 b 815 329 659 667 815 533 b 444 -14 815 135 659 -14 m 444 160 b 597 326 530 160 597 222 b 444 493 597 431 530 493 b 292 326 359 493 292 431 b 444 160 292 222 359 160 "},"7":{"ha":762,"x_min":0,"x_max":0,"o":"m 56 959 l 719 959 l 719 785 l 355 0 l 126 0 l 494 785 l 56 785 "},"8":{"ha":822,"x_min":0,"x_max":0,"o":"m 411 -14 b 42 266 222 -14 42 82 b 223 501 42 424 173 488 l 223 510 b 76 716 178 533 76 578 b 411 974 76 892 242 974 b 746 716 580 974 746 892 b 599 510 746 578 644 533 l 599 501 b 780 266 649 488 780 424 b 411 -14 780 82 600 -14 m 411 581 b 548 692 495 581 548 626 b 411 799 548 757 495 799 b 273 692 326 799 273 757 b 411 581 273 626 326 581 m 411 160 b 563 294 507 160 563 215 b 411 424 563 372 507 424 b 259 294 315 424 259 372 b 411 160 259 215 315 160 "},"9":{"ha":815,"x_min":0,"x_max":0,"o":"m 395 -14 b 34 243 225 -14 83 89 l 259 243 b 389 162 276 196 328 162 b 570 412 503 162 570 278 l 561 412 b 348 292 531 358 461 292 b 29 630 185 292 29 427 b 398 974 29 825 185 974 b 788 494 634 974 788 775 b 395 -14 788 206 647 -14 m 398 467 b 551 633 484 467 551 528 b 398 799 551 737 484 799 b 246 633 314 799 246 737 b 398 467 246 528 314 467 "}," ":{"ha":251,"x_min":0,"x_max":0,"o":""},"A":{"ha":1081,"x_min":0,"x_max":0,"o":"m 799 0 l 732 190 l 348 190 l 281 0 l 27 0 l 412 959 l 666 959 l 1052 0 m 410 365 l 669 365 l 573 634 l 541 755 l 536 755 l 505 634 "},"Á":{"ha":1081,"x_min":0,"x_max":0,"o":"m 838 1203 l 631 1041 l 457 1041 l 617 1203 m 799 0 l 732 190 l 348 190 l 281 0 l 27 0 l 412 959 l 666 959 l 1052 0 m 410 365 l 669 365 l 573 634 l 541 755 l 536 755 l 505 634 "},"Ă":{"ha":1081,"x_min":0,"x_max":0,"o":"m 540 1031 b 344 1217 424 1031 344 1114 l 464 1217 b 540 1137 464 1177 487 1137 b 617 1217 593 1137 617 1177 l 737 1217 b 540 1031 737 1114 657 1031 m 799 0 l 732 190 l 348 190 l 281 0 l 27 0 l 412 959 l 666 959 l 1052 0 m 410 365 l 669 365 l 573 634 l 541 755 l 536 755 l 505 634 "},"Ǎ":{"ha":1081,"x_min":0,"x_max":0,"o":"m 610 1022 l 471 1022 l 326 1180 l 437 1264 l 540 1151 l 644 1264 l 755 1180 m 799 0 l 732 190 l 348 190 l 281 0 l 27 0 l 412 959 l 666 959 l 1052 0 m 410 365 l 669 365 l 573 634 l 541 755 l 536 755 l 505 634 "},"Â":{"ha":1081,"x_min":0,"x_max":0,"o":"m 540 1103 l 437 989 l 326 1074 l 471 1231 l 610 1231 l 755 1074 l 644 989 m 799 0 l 732 190 l 348 190 l 281 0 l 27 0 l 412 959 l 666 959 l 1052 0 m 410 365 l 669 365 l 573 634 l 541 755 l 536 755 l 505 634 "},"Ä":{"ha":1081,"x_min":0,"x_max":0,"o":"m 504 1274 l 504 1061 l 286 1061 l 286 1274 m 798 1274 l 798 1061 l 580 1061 l 580 1274 m 799 0 l 732 190 l 348 190 l 281 0 l 27 0 l 412 959 l 666 959 l 1052 0 m 410 365 l 669 365 l 573 634 l 541 755 l 536 755 l 505 634 "},"À":{"ha":1081,"x_min":0,"x_max":0,"o":"m 623 1041 l 448 1041 l 242 1203 l 462 1203 m 799 0 l 732 190 l 348 190 l 281 0 l 27 0 l 412 959 l 666 959 l 1052 0 m 410 365 l 669 365 l 573 634 l 541 755 l 536 755 l 505 634 "},"Ā":{"ha":1081,"x_min":0,"x_max":0,"o":"m 765 1203 l 765 1065 l 315 1065 l 315 1203 m 799 0 l 732 190 l 348 190 l 281 0 l 27 0 l 412 959 l 666 959 l 1052 0 m 410 365 l 669 365 l 573 634 l 541 755 l 536 755 l 505 634 "},"Ą":{"ha":1081,"x_min":0,"x_max":0,"o":"m 975 -99 b 1070 -82 1005 -99 1044 -89 l 1042 -233 b 918 -256 1004 -249 955 -256 b 740 -117 805 -256 740 -196 b 799 0 740 -83 760 -36 l 732 190 l 348 190 l 281 0 l 27 0 l 412 959 l 666 959 l 1052 0 b 931 -69 999 -17 931 -37 b 975 -99 931 -92 951 -99 m 410 365 l 669 365 l 573 634 l 541 755 l 536 755 l 505 634 "},"Å":{"ha":1081,"x_min":0,"x_max":0,"o":"m 540 1017 b 408 1153 467 1017 408 1078 b 540 1289 408 1227 467 1289 b 672 1153 611 1289 672 1227 b 540 1017 672 1078 611 1017 m 540 1213 b 481 1153 507 1213 481 1186 b 540 1092 481 1120 507 1092 b 597 1153 571 1092 597 1120 b 540 1213 597 1186 571 1213 m 799 0 l 732 190 l 348 190 l 281 0 l 27 0 l 412 959 l 666 959 l 1052 0 m 410 365 l 669 365 l 573 634 l 541 755 l 536 755 l 505 634 "},"Ã":{"ha":1081,"x_min":0,"x_max":0,"o":"m 319 1081 b 462 1267 298 1180 369 1267 b 619 1204 547 1267 580 1204 b 641 1267 647 1204 649 1220 l 762 1267 b 619 1081 783 1168 712 1081 b 462 1145 533 1081 503 1145 b 440 1081 435 1145 432 1130 m 799 0 l 732 190 l 348 190 l 281 0 l 27 0 l 412 959 l 666 959 l 1052 0 m 410 365 l 669 365 l 573 634 l 541 755 l 536 755 l 505 634 "},"Æ":{"ha":1383,"x_min":0,"x_max":0,"o":"m 1327 785 l 882 785 l 882 588 l 1300 588 l 1300 414 l 882 414 l 882 175 l 1327 175 l 1327 0 l 664 0 l 664 233 l 407 233 l 295 0 l 27 0 l 524 959 l 1327 959 m 664 785 l 659 785 l 619 679 l 490 408 l 664 408 "},"B":{"ha":922,"x_min":0,"x_max":0,"o":"m 83 0 l 83 959 l 534 959 b 866 684 727 959 866 861 b 747 500 866 591 810 531 l 747 491 b 881 275 816 460 881 389 b 548 0 881 99 742 0 m 301 571 l 507 571 b 649 679 607 571 649 607 b 507 785 649 750 607 785 l 301 785 m 301 175 l 507 175 b 663 289 614 175 663 218 b 507 405 663 361 614 405 l 301 405 "},"C":{"ha":942,"x_min":0,"x_max":0,"o":"m 483 -14 b 40 480 208 -14 40 192 b 483 974 40 767 208 974 b 895 672 709 974 851 866 l 672 672 b 483 799 641 763 581 799 b 259 480 342 799 259 670 b 483 160 259 289 342 160 b 676 292 583 160 649 198 l 901 292 b 483 -14 856 95 710 -14 "},"Ć":{"ha":942,"x_min":0,"x_max":0,"o":"m 401 1041 l 561 1203 l 782 1203 l 576 1041 m 483 -14 b 40 480 208 -14 40 192 b 483 974 40 767 208 974 b 895 672 709 974 851 866 l 672 672 b 483 799 641 763 581 799 b 259 480 342 799 259 670 b 483 160 259 289 342 160 b 676 292 583 160 649 198 l 901 292 b 483 -14 856 95 710 -14 "},"Č":{"ha":942,"x_min":0,"x_max":0,"o":"m 379 1264 l 483 1151 l 587 1264 l 697 1180 l 553 1022 l 414 1022 l 269 1180 m 483 -14 b 40 480 208 -14 40 192 b 483 974 40 767 208 974 b 895 672 709 974 851 866 l 672 672 b 483 799 641 763 581 799 b 259 480 342 799 259 670 b 483 160 259 289 342 160 b 676 292 583 160 649 198 l 901 292 b 483 -14 856 95 710 -14 "},"Ç":{"ha":942,"x_min":0,"x_max":0,"o":"m 901 292 b 546 -11 861 113 737 7 l 523 -42 b 639 -140 584 -42 639 -86 b 329 -226 639 -262 438 -282 l 342 -122 b 490 -117 410 -149 490 -160 b 348 -87 490 -77 410 -77 l 398 -7 b 40 480 173 30 40 222 b 483 974 40 767 208 974 b 895 672 709 974 851 866 l 672 672 b 483 799 641 763 581 799 b 259 480 342 799 259 670 b 483 160 259 289 342 160 b 676 292 583 160 649 198 "},"Ċ":{"ha":942,"x_min":0,"x_max":0,"o":"m 374 1061 l 374 1274 l 591 1274 l 591 1061 m 483 -14 b 40 480 208 -14 40 192 b 483 974 40 767 208 974 b 895 672 709 974 851 866 l 672 672 b 483 799 641 763 581 799 b 259 480 342 799 259 670 b 483 160 259 289 342 160 b 676 292 583 160 649 198 l 901 292 b 483 -14 856 95 710 -14 "},"D":{"ha":929,"x_min":0,"x_max":0,"o":"m 56 0 l 56 959 l 434 959 b 888 480 736 959 888 767 b 434 0 888 192 736 0 m 273 175 l 434 175 b 670 480 601 175 670 289 b 434 785 670 670 601 785 l 273 785 "},"Ð":{"ha":915,"x_min":0,"x_max":0,"o":"m 434 959 b 888 480 736 959 888 767 b 434 0 888 192 736 0 l 56 0 l 56 392 l -14 392 l -14 567 l 56 567 l 56 959 m 434 175 b 670 480 601 175 670 289 b 434 785 670 670 601 785 l 273 785 l 273 567 l 445 567 l 445 392 l 273 392 l 273 175 "},"Ď":{"ha":929,"x_min":0,"x_max":0,"o":"m 316 1264 l 420 1151 l 524 1264 l 634 1180 l 490 1022 l 351 1022 l 206 1180 m 56 0 l 56 959 l 434 959 b 888 480 736 959 888 767 b 434 0 888 192 736 0 m 273 175 l 434 175 b 670 480 601 175 670 289 b 434 785 670 670 601 785 l 273 785 "},"Đ":{"ha":915,"x_min":0,"x_max":0,"o":"m 434 959 b 888 480 736 959 888 767 b 434 0 888 192 736 0 l 56 0 l 56 392 l -14 392 l -14 567 l 56 567 l 56 959 m 434 175 b 670 480 601 175 670 289 b 434 785 670 670 601 785 l 273 785 l 273 567 l 445 567 l 445 392 l 273 392 l 273 175 "},"E":{"ha":803,"x_min":0,"x_max":0,"o":"m 747 785 l 273 785 l 273 588 l 719 588 l 719 414 l 273 414 l 273 175 l 747 175 l 747 0 l 56 0 l 56 959 l 747 959 "},"É":{"ha":803,"x_min":0,"x_max":0,"o":"m 720 1203 l 514 1041 l 339 1041 l 500 1203 m 747 785 l 273 785 l 273 588 l 719 588 l 719 414 l 273 414 l 273 175 l 747 175 l 747 0 l 56 0 l 56 959 l 747 959 "},"Ě":{"ha":803,"x_min":0,"x_max":0,"o":"m 493 1022 l 354 1022 l 209 1180 l 319 1264 l 422 1151 l 527 1264 l 637 1180 m 747 785 l 273 785 l 273 588 l 719 588 l 719 414 l 273 414 l 273 175 l 747 175 l 747 0 l 56 0 l 56 959 l 747 959 "},"Ê":{"ha":803,"x_min":0,"x_max":0,"o":"m 422 1103 l 319 989 l 209 1074 l 354 1231 l 493 1231 l 637 1074 l 527 989 m 747 785 l 273 785 l 273 588 l 719 588 l 719 414 l 273 414 l 273 175 l 747 175 l 747 0 l 56 0 l 56 959 l 747 959 "},"Ë":{"ha":803,"x_min":0,"x_max":0,"o":"m 387 1274 l 387 1061 l 169 1061 l 169 1274 m 680 1274 l 680 1061 l 462 1061 l 462 1274 m 747 785 l 273 785 l 273 588 l 719 588 l 719 414 l 273 414 l 273 175 l 747 175 l 747 0 l 56 0 l 56 959 l 747 959 "},"Ė":{"ha":803,"x_min":0,"x_max":0,"o":"m 531 1274 l 531 1061 l 314 1061 l 314 1274 m 747 785 l 273 785 l 273 588 l 719 588 l 719 414 l 273 414 l 273 175 l 747 175 l 747 0 l 56 0 l 56 959 l 747 959 "},"È":{"ha":803,"x_min":0,"x_max":0,"o":"m 505 1041 l 331 1041 l 125 1203 l 345 1203 m 747 785 l 273 785 l 273 588 l 719 588 l 719 414 l 273 414 l 273 175 l 747 175 l 747 0 l 56 0 l 56 959 l 747 959 "},"Ē":{"ha":803,"x_min":0,"x_max":0,"o":"m 647 1203 l 647 1065 l 198 1065 l 198 1203 m 747 785 l 273 785 l 273 588 l 719 588 l 719 414 l 273 414 l 273 175 l 747 175 l 747 0 l 56 0 l 56 959 l 747 959 "},"Ę":{"ha":803,"x_min":0,"x_max":0,"o":"m 669 -99 b 763 -82 699 -99 737 -89 l 736 -233 b 611 -256 697 -249 649 -256 b 434 -117 498 -256 434 -196 b 493 0 434 -83 454 -36 l 56 0 l 56 959 l 747 959 l 747 785 l 273 785 l 273 588 l 719 588 l 719 414 l 273 414 l 273 175 l 747 175 l 747 0 l 746 0 b 624 -69 693 -17 624 -37 b 669 -99 624 -92 644 -99 "},"F":{"ha":777,"x_min":0,"x_max":0,"o":"m 736 785 l 273 785 l 273 546 l 709 546 l 709 371 l 273 371 l 273 0 l 56 0 l 56 959 l 736 959 "},"G":{"ha":977,"x_min":0,"x_max":0,"o":"m 483 -14 b 40 480 208 -14 40 192 b 510 974 40 767 221 974 b 902 670 716 974 856 869 l 677 670 b 511 798 649 766 588 798 b 259 480 357 798 259 670 b 513 162 259 289 355 162 b 716 391 654 162 716 268 l 510 391 l 510 551 l 908 551 l 908 0 l 745 0 l 735 93 l 729 93 b 483 -14 682 30 603 -14 "},"Ğ":{"ha":977,"x_min":0,"x_max":0,"o":"m 712 1217 b 514 1017 712 1114 631 1017 b 318 1217 398 1017 318 1114 l 438 1217 b 514 1123 438 1163 461 1123 b 591 1217 567 1123 591 1163 m 483 -14 b 40 480 208 -14 40 192 b 510 974 40 767 221 974 b 902 670 716 974 856 869 l 677 670 b 511 798 649 766 588 798 b 259 480 357 798 259 670 b 513 162 259 289 355 162 b 716 391 654 162 716 268 l 510 391 l 510 551 l 908 551 l 908 0 l 745 0 l 735 93 l 729 93 b 483 -14 682 30 603 -14 "},"Ģ":{"ha":985,"x_min":0,"x_max":0,"o":"m 461 -14 b 42 480 208 -14 42 192 b 475 974 42 767 193 974 b 888 657 702 974 843 856 l 664 657 b 475 799 634 753 576 799 b 259 480 329 799 259 670 b 488 160 259 289 342 160 b 702 377 640 160 702 268 l 510 377 l 510 537 l 895 537 l 895 0 l 730 0 l 730 129 l 726 129 b 461 -14 689 52 588 -14 m 355 -483 l 432 -292 l 362 -292 l 362 -79 l 580 -79 l 580 -292 l 474 -484 "},"Ġ":{"ha":977,"x_min":0,"x_max":0,"o":"m 405 1061 l 405 1274 l 623 1274 l 623 1061 m 483 -14 b 40 480 208 -14 40 192 b 510 974 40 767 221 974 b 902 670 716 974 856 869 l 677 670 b 511 798 649 766 588 798 b 259 480 357 798 259 670 b 513 162 259 289 355 162 b 716 391 654 162 716 268 l 510 391 l 510 551 l 908 551 l 908 0 l 745 0 l 735 93 l 729 93 b 483 -14 682 30 603 -14 "},"H":{"ha":999,"x_min":0,"x_max":0,"o":"m 699 959 l 916 959 l 916 0 l 699 0 l 699 417 l 301 417 l 301 0 l 83 0 l 83 959 l 301 959 l 301 591 l 699 591 "},"Ħ":{"ha":1031,"x_min":0,"x_max":0,"o":"m 1002 868 l 1002 693 l 931 693 l 931 0 l 713 0 l 713 417 l 315 417 l 315 0 l 97 0 l 97 693 l 27 693 l 27 868 l 97 868 l 97 959 l 315 959 l 315 868 l 713 868 l 713 959 l 931 959 l 931 868 m 713 591 l 713 693 l 315 693 l 315 591 "},"I":{"ha":412,"x_min":0,"x_max":0,"o":"m 97 0 l 97 959 l 315 959 l 315 0 "},"Í":{"ha":412,"x_min":0,"x_max":0,"o":"m 125 1041 l 285 1203 l 505 1203 l 299 1041 m 97 0 l 97 959 l 315 959 l 315 0 "},"Ǐ":{"ha":412,"x_min":0,"x_max":0,"o":"m 105 1264 l 208 1151 l 312 1264 l 422 1180 l 278 1022 l 139 1022 l -6 1180 m 97 0 l 97 959 l 315 959 l 315 0 "},"Î":{"ha":412,"x_min":0,"x_max":0,"o":"m 105 989 l -6 1074 l 139 1231 l 278 1231 l 422 1074 l 312 989 l 208 1103 m 97 0 l 97 959 l 315 959 l 315 0 "},"Ï":{"ha":412,"x_min":0,"x_max":0,"o":"m -46 1061 l -46 1274 l 172 1274 l 172 1061 m 248 1061 l 248 1274 l 465 1274 l 465 1061 m 97 0 l 97 959 l 315 959 l 315 0 "},"İ":{"ha":412,"x_min":0,"x_max":0,"o":"m 99 1061 l 99 1274 l 316 1274 l 316 1061 m 97 0 l 97 959 l 315 959 l 315 0 "},"Ì":{"ha":412,"x_min":0,"x_max":0,"o":"m 116 1041 l -90 1203 l 130 1203 l 291 1041 m 97 0 l 97 959 l 315 959 l 315 0 "},"Ī":{"ha":412,"x_min":0,"x_max":0,"o":"m -17 1203 l 432 1203 l 432 1065 l -17 1065 m 97 0 l 97 959 l 315 959 l 315 0 "},"Į":{"ha":412,"x_min":0,"x_max":0,"o":"m 239 -99 b 334 -82 269 -99 308 -89 l 306 -233 b 182 -256 268 -249 219 -256 b 4 -117 69 -256 4 -196 b 97 26 4 -73 37 -10 l 97 959 l 315 959 l 315 0 l 316 0 b 195 -69 263 -17 195 -37 b 239 -99 195 -92 215 -99 "},"J":{"ha":851,"x_min":0,"x_max":0,"o":"m 418 -14 b 56 305 180 -14 70 93 l 273 305 b 418 160 288 233 308 160 b 563 348 541 160 563 233 l 563 959 l 780 959 l 780 355 b 418 -14 780 100 656 -14 "},"K":{"ha":925,"x_min":0,"x_max":0,"o":"m 925 0 l 630 0 l 301 408 l 301 0 l 83 0 l 83 959 l 301 959 l 301 567 l 611 959 l 881 959 l 493 490 "},"Ķ":{"ha":925,"x_min":0,"x_max":0,"o":"m 483 501 l 883 0 l 599 0 l 301 414 l 301 0 l 83 0 l 83 959 l 301 959 l 301 577 l 619 959 l 881 959 m 339 -292 l 339 -79 l 557 -79 l 557 -292 l 450 -484 l 332 -483 l 408 -292 "},"L":{"ha":789,"x_min":0,"x_max":0,"o":"m 301 175 l 733 175 l 733 0 l 83 0 l 83 959 l 301 959 "},"Ĺ":{"ha":789,"x_min":0,"x_max":0,"o":"m 495 1203 l 289 1041 l 115 1041 l 275 1203 m 301 175 l 733 175 l 733 0 l 83 0 l 83 959 l 301 959 "},"Ľ":{"ha":762,"x_min":0,"x_max":0,"o":"m 505 1062 l 495 773 l 359 773 l 359 1062 m 301 175 l 733 175 l 733 0 l 83 0 l 83 959 l 301 959 "},"Ļ":{"ha":762,"x_min":0,"x_max":0,"o":"m 288 175 l 733 175 l 733 0 l 70 0 l 70 959 l 288 959 m 291 -292 l 291 -79 l 508 -79 l 508 -292 l 401 -484 l 284 -483 l 359 -292 "},"Ł":{"ha":816,"x_min":0,"x_max":0,"o":"m 329 175 l 762 175 l 762 0 l 112 0 l 112 357 l 70 342 l 70 530 l 112 544 l 112 959 l 329 959 l 329 620 l 398 644 l 398 457 l 329 432 "},"M":{"ha":1239,"x_min":0,"x_max":0,"o":"m 83 0 l 83 959 l 371 959 l 597 357 l 619 268 l 623 268 l 641 357 l 868 959 l 1155 959 l 1155 0 l 938 0 l 938 501 l 949 706 l 945 706 l 903 543 l 697 0 l 543 0 l 336 543 l 295 706 l 291 706 l 301 501 l 301 0 "},"N":{"ha":1014,"x_min":0,"x_max":0,"o":"m 70 0 l 70 959 l 329 959 l 740 371 l 745 371 l 733 561 l 733 959 l 945 959 l 945 0 l 732 0 l 273 677 l 269 677 l 281 487 l 281 0 "},"Ń":{"ha":1014,"x_min":0,"x_max":0,"o":"m 440 1041 l 600 1203 l 820 1203 l 614 1041 m 70 0 l 70 959 l 329 959 l 740 371 l 745 371 l 733 561 l 733 959 l 945 959 l 945 0 l 732 0 l 273 677 l 269 677 l 281 487 l 281 0 "},"Ň":{"ha":1014,"x_min":0,"x_max":0,"o":"m 418 1264 l 521 1151 l 626 1264 l 736 1180 l 591 1022 l 452 1022 l 308 1180 m 70 0 l 70 959 l 329 959 l 740 371 l 745 371 l 733 561 l 733 959 l 945 959 l 945 0 l 732 0 l 273 677 l 269 677 l 281 487 l 281 0 "},"Ņ":{"ha":987,"x_min":0,"x_max":0,"o":"m 56 0 l 56 959 l 315 959 l 719 371 l 723 371 l 713 561 l 713 959 l 931 959 l 931 0 l 717 0 l 266 677 l 262 677 l 273 487 l 273 0 m 295 -301 l 415 -72 l 603 -72 l 435 -301 "},"Ŋ":{"ha":1070,"x_min":0,"x_max":0,"o":"m 755 959 l 972 959 l 972 -37 b 745 -243 972 -190 914 -243 l 649 -243 l 649 -80 l 686 -80 b 760 -10 742 -80 760 -67 l 760 0 l 308 677 l 304 677 l 315 487 l 315 0 l 97 0 l 97 959 l 357 959 l 762 371 l 765 371 l 755 561 "},"Ñ":{"ha":1014,"x_min":0,"x_max":0,"o":"m 301 1081 b 444 1267 279 1180 351 1267 b 600 1204 528 1267 561 1204 b 623 1267 629 1204 630 1220 l 743 1267 b 600 1081 765 1168 693 1081 b 444 1145 514 1081 484 1145 b 421 1081 417 1145 414 1130 m 70 0 l 70 959 l 329 959 l 740 371 l 745 371 l 733 561 l 733 959 l 945 959 l 945 0 l 732 0 l 273 677 l 269 677 l 281 487 l 281 0 "},"O":{"ha":992,"x_min":0,"x_max":0,"o":"m 495 974 b 951 480 785 974 951 767 b 495 -14 951 192 785 -14 b 40 480 208 -14 40 192 b 495 974 40 767 208 974 m 495 163 b 732 480 650 163 732 289 b 495 796 732 670 650 796 b 259 480 342 796 259 670 b 495 163 259 289 342 163 "},"Ó":{"ha":992,"x_min":0,"x_max":0,"o":"m 412 1055 l 573 1217 l 793 1217 l 587 1055 m 495 974 b 951 480 785 974 951 767 b 495 -14 951 192 785 -14 b 40 480 208 -14 40 192 b 495 974 40 767 208 974 m 495 163 b 732 480 650 163 732 289 b 495 796 732 670 650 796 b 259 480 342 796 259 670 b 495 163 259 289 342 163 "},"Ǒ":{"ha":992,"x_min":0,"x_max":0,"o":"m 392 1279 l 495 1166 l 600 1279 l 710 1194 l 566 1037 l 427 1037 l 282 1194 m 495 974 b 951 480 785 974 951 767 b 495 -14 951 192 785 -14 b 40 480 208 -14 40 192 b 495 974 40 767 208 974 m 495 163 b 732 480 650 163 732 289 b 495 796 732 670 650 796 b 259 480 342 796 259 670 b 495 163 259 289 342 163 "},"Ô":{"ha":992,"x_min":0,"x_max":0,"o":"m 392 1004 l 282 1088 l 427 1246 l 566 1246 l 710 1088 l 600 1004 l 495 1117 m 495 974 b 951 480 785 974 951 767 b 495 -14 951 192 785 -14 b 40 480 208 -14 40 192 b 495 974 40 767 208 974 m 495 163 b 732 480 650 163 732 289 b 495 796 732 670 650 796 b 259 480 342 796 259 670 b 495 163 259 289 342 163 "},"Ö":{"ha":992,"x_min":0,"x_max":0,"o":"m 242 1075 l 242 1289 l 460 1289 l 460 1075 m 536 1075 l 536 1289 l 753 1289 l 753 1075 m 495 974 b 951 480 785 974 951 767 b 495 -14 951 192 785 -14 b 40 480 208 -14 40 192 b 495 974 40 767 208 974 m 495 163 b 732 480 650 163 732 289 b 495 796 732 670 650 796 b 259 480 342 796 259 670 b 495 163 259 289 342 163 "},"Ò":{"ha":992,"x_min":0,"x_max":0,"o":"m 404 1055 l 198 1217 l 418 1217 l 578 1055 m 495 974 b 951 480 785 974 951 767 b 495 -14 951 192 785 -14 b 40 480 208 -14 40 192 b 495 974 40 767 208 974 m 495 163 b 732 480 650 163 732 289 b 495 796 732 670 650 796 b 259 480 342 796 259 670 b 495 163 259 289 342 163 "},"Ő":{"ha":992,"x_min":0,"x_max":0,"o":"m 279 1055 l 411 1217 l 631 1217 l 454 1055 m 566 1055 l 697 1217 l 918 1217 l 740 1055 m 495 974 b 951 480 785 974 951 767 b 495 -14 951 192 785 -14 b 40 480 208 -14 40 192 b 495 974 40 767 208 974 m 495 163 b 732 480 650 163 732 289 b 495 796 732 670 650 796 b 259 480 342 796 259 670 b 495 163 259 289 342 163 "},"Ō":{"ha":992,"x_min":0,"x_max":0,"o":"m 271 1217 l 720 1217 l 720 1080 l 271 1080 m 495 974 b 951 480 785 974 951 767 b 495 -14 951 192 785 -14 b 40 480 208 -14 40 192 b 495 974 40 767 208 974 m 495 163 b 732 480 650 163 732 289 b 495 796 732 670 650 796 b 259 480 342 796 259 670 b 495 163 259 289 342 163 "},"Ø":{"ha":992,"x_min":0,"x_max":0,"o":"m 819 848 b 949 480 903 760 949 631 b 495 -14 949 192 785 -14 b 265 40 407 -14 329 6 l 238 0 l 99 0 l 175 110 b 42 480 87 198 42 328 b 495 974 42 767 208 974 b 727 918 586 974 663 954 l 756 959 l 895 959 m 259 480 b 296 289 259 405 272 341 l 620 762 b 495 798 586 785 544 798 b 259 480 342 798 259 670 m 495 162 b 732 480 650 162 732 289 b 696 669 732 553 719 617 l 372 198 b 495 162 407 175 448 162 "},"Õ":{"ha":992,"x_min":0,"x_max":0,"o":"m 275 1095 b 418 1282 253 1194 325 1282 b 574 1218 503 1282 536 1218 b 597 1282 603 1218 604 1234 l 717 1282 b 574 1095 739 1183 667 1095 b 418 1160 488 1095 458 1160 b 395 1095 391 1160 388 1144 m 495 974 b 951 480 785 974 951 767 b 495 -14 951 192 785 -14 b 40 480 208 -14 40 192 b 495 974 40 767 208 974 m 495 163 b 732 480 650 163 732 289 b 495 796 732 670 650 796 b 259 480 342 796 259 670 b 495 163 259 289 342 163 "},"Œ":{"ha":1452,"x_min":0,"x_max":0,"o":"m 1396 785 l 949 785 l 949 588 l 1367 588 l 1367 414 l 949 414 l 949 175 l 1396 175 l 1396 0 l 732 0 l 732 59 b 495 -14 674 13 596 -14 b 42 480 208 -14 42 192 b 495 974 42 767 208 974 b 732 901 596 974 674 946 l 732 959 l 1396 959 m 495 162 b 732 480 650 162 732 289 b 495 798 732 670 650 798 b 259 480 342 798 259 670 b 495 162 259 289 342 162 "},"P":{"ha":881,"x_min":0,"x_max":0,"o":"m 521 959 b 853 670 714 959 853 846 b 521 381 853 494 714 381 l 273 381 l 273 0 l 56 0 l 56 959 l 521 959 m 480 556 b 634 670 586 556 634 599 b 480 785 634 742 586 785 l 273 785 l 273 556 "},"Þ":{"ha":881,"x_min":0,"x_max":0,"o":"m 507 769 b 839 480 700 769 839 656 b 507 190 839 304 700 190 l 273 190 l 273 0 l 56 0 l 56 959 l 273 959 l 273 769 m 465 365 b 621 480 573 365 621 408 b 465 594 621 551 573 594 l 273 594 l 273 365 "},"Q":{"ha":1019,"x_min":0,"x_max":0,"o":"m 54 480 b 510 974 54 767 221 974 b 965 504 799 974 965 767 b 813 169 965 367 919 242 l 813 160 b 978 175 865 175 941 173 l 978 0 b 510 -14 818 6 556 -14 b 54 480 221 -14 54 192 m 273 480 b 510 163 273 289 355 163 b 746 480 664 163 746 289 b 510 796 746 670 664 796 b 273 480 355 796 273 670 "},"R":{"ha":949,"x_min":0,"x_max":0,"o":"m 83 0 l 83 959 l 563 959 b 895 694 756 959 895 846 b 714 458 895 556 780 478 l 714 448 b 859 245 835 414 859 344 l 859 -1 l 641 -1 l 641 284 b 554 381 641 339 624 381 l 301 381 l 301 0 m 301 556 l 521 556 b 676 670 627 556 676 599 b 521 785 676 742 627 785 l 301 785 "},"Ŕ":{"ha":949,"x_min":0,"x_max":0,"o":"m 361 1041 l 521 1203 l 742 1203 l 536 1041 m 83 0 l 83 959 l 563 959 b 895 694 756 959 895 846 b 714 458 895 556 780 478 l 714 448 b 859 245 835 414 859 344 l 859 -1 l 641 -1 l 641 284 b 554 381 641 339 624 381 l 301 381 l 301 0 m 301 556 l 521 556 b 676 670 627 556 676 599 b 521 785 676 742 627 785 l 301 785 "},"Ř":{"ha":949,"x_min":0,"x_max":0,"o":"m 339 1264 l 442 1151 l 547 1264 l 657 1180 l 513 1022 l 374 1022 l 229 1180 m 83 0 l 83 959 l 563 959 b 895 694 756 959 895 846 b 714 458 895 556 780 478 l 714 448 b 859 245 835 414 859 344 l 859 -1 l 641 -1 l 641 284 b 554 381 641 339 624 381 l 301 381 l 301 0 m 301 556 l 521 556 b 676 670 627 556 676 599 b 521 785 676 742 627 785 l 301 785 "},"Ŗ":{"ha":949,"x_min":0,"x_max":0,"o":"m 83 0 l 83 959 l 563 959 b 895 694 756 959 895 846 b 714 458 895 556 780 478 l 714 448 b 859 245 835 414 859 344 l 859 -1 l 641 -1 l 641 284 b 554 381 641 339 624 381 l 301 381 l 301 0 m 301 556 l 521 556 b 676 670 627 556 676 599 b 521 785 676 742 627 785 l 301 785 m 359 -483 l 435 -292 l 367 -292 l 367 -79 l 584 -79 l 584 -292 l 477 -484 "},"S":{"ha":924,"x_min":0,"x_max":0,"o":"m 480 -14 b 56 301 235 -14 70 116 l 281 301 b 485 160 295 205 362 160 b 650 268 590 160 650 196 b 458 404 650 355 564 381 b 84 689 289 440 84 475 b 474 974 84 893 286 974 b 855 683 672 974 840 865 l 630 683 b 464 799 616 757 578 799 b 306 707 364 799 306 765 b 521 588 306 631 398 614 b 872 292 683 553 872 493 b 480 -14 872 109 720 -14 "},"Ś":{"ha":924,"x_min":0,"x_max":0,"o":"m 388 1041 l 548 1203 l 769 1203 l 563 1041 m 480 -14 b 56 301 235 -14 70 116 l 281 301 b 485 160 295 205 362 160 b 650 268 590 160 650 196 b 458 404 650 355 564 381 b 84 689 289 440 84 475 b 474 974 84 893 286 974 b 855 683 672 974 840 865 l 630 683 b 464 799 616 757 578 799 b 306 707 364 799 306 765 b 521 588 306 631 398 614 b 872 292 683 553 872 493 b 480 -14 872 109 720 -14 "},"Š":{"ha":924,"x_min":0,"x_max":0,"o":"m 367 1264 l 470 1151 l 574 1264 l 684 1180 l 540 1022 l 401 1022 l 256 1180 m 480 -14 b 56 301 235 -14 70 116 l 281 301 b 485 160 295 205 362 160 b 650 268 590 160 650 196 b 458 404 650 355 564 381 b 84 689 289 440 84 475 b 474 974 84 893 286 974 b 855 683 672 974 840 865 l 630 683 b 464 799 616 757 578 799 b 306 707 364 799 306 765 b 521 588 306 631 398 614 b 872 292 683 553 872 493 b 480 -14 872 109 720 -14 "},"Ş":{"ha":924,"x_min":0,"x_max":0,"o":"m 872 292 b 543 -11 872 126 746 9 l 520 -42 b 636 -140 581 -42 636 -86 b 326 -226 636 -262 435 -282 l 339 -122 b 487 -117 407 -149 487 -160 b 345 -87 487 -77 407 -77 l 395 -9 b 56 301 198 17 69 139 l 281 301 b 485 160 295 205 362 160 b 650 268 590 160 650 196 b 458 404 650 355 564 381 b 84 689 289 440 84 475 b 474 974 84 893 286 974 b 855 683 672 974 840 865 l 630 683 b 464 799 616 757 578 799 b 306 707 364 799 306 765 b 521 588 306 631 398 614 b 872 292 683 553 872 493 "},"Ș":{"ha":924,"x_min":0,"x_max":0,"o":"m 480 -14 b 56 301 235 -14 70 116 l 281 301 b 485 160 295 205 362 160 b 650 268 590 160 650 196 b 458 404 650 355 564 381 b 84 689 289 440 84 475 b 474 974 84 893 286 974 b 855 683 672 974 840 865 l 630 683 b 464 799 616 757 578 799 b 306 707 364 799 306 765 b 521 588 306 631 398 614 b 872 292 683 553 872 493 b 480 -14 872 109 720 -14 m 361 -483 l 437 -292 l 368 -292 l 368 -79 l 586 -79 l 586 -292 l 478 -484 "},"ẞ":{"ha":903,"x_min":0,"x_max":0,"o":"m 83 0 l 83 722 b 311 959 83 906 142 959 l 810 959 l 810 785 l 613 570 b 858 289 760 541 858 438 b 527 0 858 113 719 0 l 394 0 l 394 175 l 485 175 b 640 289 591 175 640 218 b 485 404 640 361 591 404 l 394 404 l 394 578 l 573 785 l 375 785 b 301 716 319 785 301 772 l 301 0 "},"T":{"ha":832,"x_min":0,"x_max":0,"o":"m 805 959 l 805 785 l 525 785 l 525 0 l 306 0 l 306 785 l 27 785 l 27 959 "},"Ŧ":{"ha":846,"x_min":0,"x_max":0,"o":"m 818 785 l 533 785 l 533 515 l 679 515 l 679 341 l 533 341 l 533 0 l 314 0 l 314 341 l 166 341 l 166 515 l 314 515 l 314 785 l 27 785 l 27 959 l 818 959 "},"Ť":{"ha":832,"x_min":0,"x_max":0,"o":"m 487 1022 l 348 1022 l 203 1180 l 314 1264 l 417 1151 l 521 1264 l 631 1180 m 805 959 l 805 785 l 525 785 l 525 0 l 306 0 l 306 785 l 27 785 l 27 959 "},"Ţ":{"ha":832,"x_min":0,"x_max":0,"o":"m 525 0 l 488 0 l 457 -42 b 573 -140 518 -42 573 -86 b 263 -226 573 -262 372 -282 l 276 -122 b 424 -117 344 -149 424 -160 b 282 -87 424 -77 344 -77 l 338 0 l 306 0 l 306 785 l 27 785 l 27 959 l 805 959 l 805 785 l 525 785 "},"Ț":{"ha":832,"x_min":0,"x_max":0,"o":"m 805 959 l 805 785 l 525 785 l 525 0 l 306 0 l 306 785 l 27 785 l 27 959 m 305 -292 l 305 -79 l 523 -79 l 523 -292 l 415 -484 l 298 -483 l 374 -292 "},"U":{"ha":948,"x_min":0,"x_max":0,"o":"m 660 959 l 878 959 l 878 384 b 474 -14 878 129 712 -14 b 70 384 236 -14 70 129 l 70 959 l 288 959 l 288 377 b 474 160 288 262 336 160 b 660 377 611 160 660 262 "},"Ú":{"ha":948,"x_min":0,"x_max":0,"o":"m 391 1041 l 551 1203 l 772 1203 l 566 1041 m 660 959 l 878 959 l 878 384 b 474 -14 878 129 712 -14 b 70 384 236 -14 70 129 l 70 959 l 288 959 l 288 377 b 474 160 288 262 336 160 b 660 377 611 160 660 262 "},"Ǔ":{"ha":948,"x_min":0,"x_max":0,"o":"m 371 1264 l 474 1151 l 578 1264 l 689 1180 l 544 1022 l 405 1022 l 261 1180 m 660 959 l 878 959 l 878 384 b 474 -14 878 129 712 -14 b 70 384 236 -14 70 129 l 70 959 l 288 959 l 288 377 b 474 160 288 262 336 160 b 660 377 611 160 660 262 "},"Û":{"ha":948,"x_min":0,"x_max":0,"o":"m 371 989 l 261 1074 l 405 1231 l 544 1231 l 689 1074 l 578 989 l 474 1103 m 660 959 l 878 959 l 878 384 b 474 -14 878 129 712 -14 b 70 384 236 -14 70 129 l 70 959 l 288 959 l 288 377 b 474 160 288 262 336 160 b 660 377 611 160 660 262 "},"Ü":{"ha":948,"x_min":0,"x_max":0,"o":"m 221 1061 l 221 1274 l 438 1274 l 438 1061 m 514 1061 l 514 1274 l 732 1274 l 732 1061 m 660 959 l 878 959 l 878 384 b 474 -14 878 129 712 -14 b 70 384 236 -14 70 129 l 70 959 l 288 959 l 288 377 b 474 160 288 262 336 160 b 660 377 611 160 660 262 "},"Ù":{"ha":948,"x_min":0,"x_max":0,"o":"m 382 1041 l 176 1203 l 397 1203 l 557 1041 m 660 959 l 878 959 l 878 384 b 474 -14 878 129 712 -14 b 70 384 236 -14 70 129 l 70 959 l 288 959 l 288 377 b 474 160 288 262 336 160 b 660 377 611 160 660 262 "},"Ű":{"ha":948,"x_min":0,"x_max":0,"o":"m 258 1041 l 389 1203 l 610 1203 l 432 1041 m 544 1041 l 676 1203 l 896 1203 l 719 1041 m 660 959 l 878 959 l 878 384 b 474 -14 878 129 712 -14 b 70 384 236 -14 70 129 l 70 959 l 288 959 l 288 377 b 474 160 288 262 336 160 b 660 377 611 160 660 262 "},"Ū":{"ha":948,"x_min":0,"x_max":0,"o":"m 249 1203 l 699 1203 l 699 1065 l 249 1065 m 660 959 l 878 959 l 878 384 b 474 -14 878 129 712 -14 b 70 384 236 -14 70 129 l 70 959 l 288 959 l 288 377 b 474 160 288 262 336 160 b 660 377 611 160 660 262 "},"Ų":{"ha":948,"x_min":0,"x_max":0,"o":"m 660 959 l 878 959 l 878 384 b 644 14 878 196 788 69 l 646 14 b 524 -54 593 -3 524 -23 b 568 -84 524 -77 544 -84 b 663 -67 599 -84 637 -74 l 636 -219 b 511 -242 597 -235 548 -242 b 334 -103 398 -242 334 -182 b 374 -6 334 -74 348 -37 b 70 384 190 30 70 166 l 70 959 l 288 959 l 288 377 b 474 160 288 262 336 160 b 660 377 611 160 660 262 "},"Ů":{"ha":948,"x_min":0,"x_max":0,"o":"m 474 1017 b 342 1153 401 1017 342 1078 b 474 1289 342 1227 401 1289 b 606 1153 546 1289 606 1227 b 474 1017 606 1078 546 1017 m 474 1092 b 531 1153 505 1092 531 1120 b 474 1213 531 1186 505 1213 b 415 1153 441 1213 415 1186 b 474 1092 415 1120 441 1092 m 660 959 l 878 959 l 878 384 b 474 -14 878 129 712 -14 b 70 384 236 -14 70 129 l 70 959 l 288 959 l 288 377 b 474 160 288 262 336 160 b 660 377 611 160 660 262 "},"V":{"ha":1081,"x_min":0,"x_max":0,"o":"m 412 0 l 27 959 l 288 959 l 505 325 l 537 219 l 540 219 l 573 325 l 792 959 l 1052 959 l 666 0 "},"W":{"ha":1409,"x_min":0,"x_max":0,"o":"m 284 0 l 27 959 l 276 959 l 399 342 l 418 238 l 421 238 l 441 342 l 593 959 l 815 959 l 975 342 l 995 238 l 998 238 l 1017 342 l 1133 959 l 1380 959 l 1134 0 l 861 0 l 722 597 l 710 699 l 707 699 l 694 597 l 556 0 "},"Ẃ":{"ha":1409,"x_min":0,"x_max":0,"o":"m 621 1041 l 782 1203 l 1002 1203 l 796 1041 m 284 0 l 27 959 l 276 959 l 399 342 l 418 238 l 421 238 l 441 342 l 593 959 l 815 959 l 975 342 l 995 238 l 998 238 l 1017 342 l 1133 959 l 1380 959 l 1134 0 l 861 0 l 722 597 l 710 699 l 707 699 l 694 597 l 556 0 "},"Ŵ":{"ha":1409,"x_min":0,"x_max":0,"o":"m 601 989 l 491 1074 l 636 1231 l 775 1231 l 919 1074 l 809 989 l 704 1103 m 284 0 l 27 959 l 276 959 l 399 342 l 418 238 l 421 238 l 441 342 l 593 959 l 815 959 l 975 342 l 995 238 l 998 238 l 1017 342 l 1133 959 l 1380 959 l 1134 0 l 861 0 l 722 597 l 710 699 l 707 699 l 694 597 l 556 0 "},"Ẅ":{"ha":1409,"x_min":0,"x_max":0,"o":"m 451 1061 l 451 1274 l 669 1274 l 669 1061 m 745 1061 l 745 1274 l 962 1274 l 962 1061 m 284 0 l 27 959 l 276 959 l 399 342 l 418 238 l 421 238 l 441 342 l 593 959 l 815 959 l 975 342 l 995 238 l 998 238 l 1017 342 l 1133 959 l 1380 959 l 1134 0 l 861 0 l 722 597 l 710 699 l 707 699 l 694 597 l 556 0 "},"Ẁ":{"ha":1409,"x_min":0,"x_max":0,"o":"m 613 1041 l 407 1203 l 627 1203 l 788 1041 m 284 0 l 27 959 l 276 959 l 399 342 l 418 238 l 421 238 l 441 342 l 593 959 l 815 959 l 975 342 l 995 238 l 998 238 l 1017 342 l 1133 959 l 1380 959 l 1134 0 l 861 0 l 722 597 l 710 699 l 707 699 l 694 597 l 556 0 "},"X":{"ha":999,"x_min":0,"x_max":0,"o":"m 27 0 l 364 487 l 27 959 l 312 959 l 493 667 l 687 959 l 972 959 l 636 487 l 972 0 l 687 0 l 507 305 l 312 0 "},"Y":{"ha":912,"x_min":0,"x_max":0,"o":"m 646 959 l 899 959 l 566 344 l 566 0 l 348 0 l 348 344 l 14 959 l 266 959 l 457 558 "},"Ý":{"ha":912,"x_min":0,"x_max":0,"o":"m 755 1203 l 548 1041 l 374 1041 l 534 1203 m 646 959 l 899 959 l 566 344 l 566 0 l 348 0 l 348 344 l 14 959 l 266 959 l 457 558 "},"Ŷ":{"ha":912,"x_min":0,"x_max":0,"o":"m 457 1103 l 354 989 l 243 1074 l 388 1231 l 527 1231 l 672 1074 l 561 989 m 646 959 l 899 959 l 566 344 l 566 0 l 348 0 l 348 344 l 14 959 l 266 959 l 457 558 "},"Ÿ":{"ha":912,"x_min":0,"x_max":0,"o":"m 421 1274 l 421 1061 l 203 1061 l 203 1274 m 714 1274 l 714 1061 l 497 1061 l 497 1274 m 646 959 l 899 959 l 566 344 l 566 0 l 348 0 l 348 344 l 14 959 l 266 959 l 457 558 "},"Ỳ":{"ha":912,"x_min":0,"x_max":0,"o":"m 540 1041 l 365 1041 l 159 1203 l 379 1203 m 646 959 l 899 959 l 566 344 l 566 0 l 348 0 l 348 344 l 14 959 l 266 959 l 457 558 "},"Z":{"ha":865,"x_min":0,"x_max":0,"o":"m 42 0 l 42 175 l 534 785 l 56 785 l 56 959 l 810 959 l 810 785 l 316 175 l 823 175 l 823 0 "},"Ź":{"ha":865,"x_min":0,"x_max":0,"o":"m 352 1041 l 513 1203 l 733 1203 l 527 1041 m 42 0 l 42 175 l 534 785 l 56 785 l 56 959 l 810 959 l 810 785 l 316 175 l 823 175 l 823 0 "},"Ž":{"ha":865,"x_min":0,"x_max":0,"o":"m 331 1264 l 434 1151 l 538 1264 l 649 1180 l 504 1022 l 365 1022 l 221 1180 m 42 0 l 42 175 l 534 785 l 56 785 l 56 959 l 810 959 l 810 785 l 316 175 l 823 175 l 823 0 "},"Ż":{"ha":865,"x_min":0,"x_max":0,"o":"m 325 1061 l 325 1274 l 543 1274 l 543 1061 m 42 0 l 42 175 l 534 785 l 56 785 l 56 959 l 810 959 l 810 785 l 316 175 l 823 175 l 823 0 "},"a":{"ha":780,"x_min":0,"x_max":0,"o":"m 717 428 b 737 0 717 133 716 63 l 515 0 b 504 69 510 20 507 43 l 495 69 b 298 -14 450 16 375 -14 b 49 203 173 -14 49 60 b 504 447 49 387 252 431 l 504 467 b 398 574 504 528 470 574 b 294 497 339 574 306 541 l 77 497 b 401 730 116 686 265 730 b 717 428 593 730 717 643 m 372 127 b 504 281 454 127 504 185 l 504 314 b 271 208 368 304 271 282 b 372 127 271 159 312 127 "},"á":{"ha":780,"x_min":0,"x_max":0,"o":"m 716 959 l 510 798 l 335 798 l 495 959 m 717 428 b 737 0 717 133 716 63 l 515 0 b 504 69 510 20 507 43 l 495 69 b 298 -14 450 16 375 -14 b 49 203 173 -14 49 60 b 504 447 49 387 252 431 l 504 467 b 398 574 504 528 470 574 b 294 497 339 574 306 541 l 77 497 b 401 730 116 686 265 730 b 717 428 593 730 717 643 m 372 127 b 504 281 454 127 504 185 l 504 314 b 271 208 368 304 271 282 b 372 127 271 159 312 127 "},"ă":{"ha":780,"x_min":0,"x_max":0,"o":"m 417 773 b 221 974 301 773 221 871 l 341 974 b 417 879 341 919 364 879 b 494 974 470 879 494 919 l 614 974 b 417 773 614 871 534 773 m 717 428 b 737 0 717 133 716 63 l 515 0 b 504 69 510 20 507 43 l 495 69 b 298 -14 450 16 375 -14 b 49 203 173 -14 49 60 b 504 447 49 387 252 431 l 504 467 b 398 574 504 528 470 574 b 294 497 339 574 306 541 l 77 497 b 401 730 116 686 265 730 b 717 428 593 730 717 643 m 372 127 b 504 281 454 127 504 185 l 504 314 b 271 208 368 304 271 282 b 372 127 271 159 312 127 "},"ǎ":{"ha":780,"x_min":0,"x_max":0,"o":"m 487 779 l 348 779 l 203 936 l 314 1021 l 417 908 l 521 1021 l 631 936 m 717 428 b 737 0 717 133 716 63 l 515 0 b 504 69 510 20 507 43 l 495 69 b 298 -14 450 16 375 -14 b 49 203 173 -14 49 60 b 504 447 49 387 252 431 l 504 467 b 398 574 504 528 470 574 b 294 497 339 574 306 541 l 77 497 b 401 730 116 686 265 730 b 717 428 593 730 717 643 m 372 127 b 504 281 454 127 504 185 l 504 314 b 271 208 368 304 271 282 b 372 127 271 159 312 127 "},"â":{"ha":780,"x_min":0,"x_max":0,"o":"m 417 889 l 314 776 l 203 861 l 348 1018 l 487 1018 l 631 861 l 521 776 m 717 428 b 737 0 717 133 716 63 l 515 0 b 504 69 510 20 507 43 l 495 69 b 298 -14 450 16 375 -14 b 49 203 173 -14 49 60 b 504 447 49 387 252 431 l 504 467 b 398 574 504 528 470 574 b 294 497 339 574 306 541 l 77 497 b 401 730 116 686 265 730 b 717 428 593 730 717 643 m 372 127 b 504 281 454 127 504 185 l 504 314 b 271 208 368 304 271 282 b 372 127 271 159 312 127 "},"ä":{"ha":780,"x_min":0,"x_max":0,"o":"m 382 1031 l 382 818 l 165 818 l 165 1031 m 676 1031 l 676 818 l 458 818 l 458 1031 m 717 428 b 737 0 717 133 716 63 l 515 0 b 504 69 510 20 507 43 l 495 69 b 298 -14 450 16 375 -14 b 49 203 173 -14 49 60 b 504 447 49 387 252 431 l 504 467 b 398 574 504 528 470 574 b 294 497 339 574 306 541 l 77 497 b 401 730 116 686 265 730 b 717 428 593 730 717 643 m 372 127 b 504 281 454 127 504 185 l 504 314 b 271 208 368 304 271 282 b 372 127 271 159 312 127 "},"à":{"ha":780,"x_min":0,"x_max":0,"o":"m 567 798 l 392 798 l 186 959 l 407 959 m 717 428 b 737 0 717 133 716 63 l 515 0 b 504 69 510 20 507 43 l 495 69 b 298 -14 450 16 375 -14 b 49 203 173 -14 49 60 b 504 447 49 387 252 431 l 504 467 b 398 574 504 528 470 574 b 294 497 339 574 306 541 l 77 497 b 401 730 116 686 265 730 b 717 428 593 730 717 643 m 372 127 b 504 281 454 127 504 185 l 504 314 b 271 208 368 304 271 282 b 372 127 271 159 312 127 "},"ā":{"ha":780,"x_min":0,"x_max":0,"o":"m 641 959 l 641 822 l 192 822 l 192 959 m 717 428 b 737 0 717 133 716 63 l 515 0 b 504 69 510 20 507 43 l 495 69 b 298 -14 450 16 375 -14 b 49 203 173 -14 49 60 b 504 447 49 387 252 431 l 504 467 b 398 574 504 528 470 574 b 294 497 339 574 306 541 l 77 497 b 401 730 116 686 265 730 b 717 428 593 730 717 643 m 372 127 b 504 281 454 127 504 185 l 504 314 b 271 208 368 304 271 282 b 372 127 271 159 312 127 "},"ą":{"ha":780,"x_min":0,"x_max":0,"o":"m 666 -99 b 760 -82 696 -99 735 -89 l 733 -233 b 609 -256 694 -249 646 -256 b 431 -117 495 -256 431 -196 b 513 11 431 -77 462 -24 b 504 69 508 29 507 47 l 495 69 b 298 -14 450 16 375 -14 b 49 203 173 -14 49 60 b 504 447 49 387 252 431 l 504 467 b 398 574 504 528 470 574 b 294 497 339 574 306 541 l 77 497 b 401 730 116 686 265 730 b 717 428 593 730 717 643 b 737 0 717 135 716 63 l 743 0 b 621 -69 690 -17 621 -37 b 666 -99 621 -92 641 -99 m 372 127 b 504 281 454 127 504 185 l 504 314 b 271 208 368 304 271 282 b 372 127 271 159 312 127 "},"å":{"ha":780,"x_min":0,"x_max":0,"o":"m 417 773 b 285 909 344 773 285 835 b 417 1045 285 984 344 1045 b 548 909 488 1045 548 984 b 417 773 548 835 488 773 m 417 969 b 358 909 384 969 358 942 b 417 849 358 876 384 849 b 474 909 448 849 474 876 b 417 969 474 942 448 969 m 717 428 b 737 0 717 133 716 63 l 515 0 b 504 69 510 20 507 43 l 495 69 b 298 -14 450 16 375 -14 b 49 203 173 -14 49 60 b 504 447 49 387 252 431 l 504 467 b 398 574 504 528 470 574 b 294 497 339 574 306 541 l 77 497 b 401 730 116 686 265 730 b 717 428 593 730 717 643 m 372 127 b 504 281 454 127 504 185 l 504 314 b 271 208 368 304 271 282 b 372 127 271 159 312 127 "},"ã":{"ha":780,"x_min":0,"x_max":0,"o":"m 196 838 b 339 1024 175 936 246 1024 b 495 961 424 1024 457 961 b 518 1024 524 961 525 977 l 639 1024 b 495 838 660 925 588 838 b 339 902 410 838 379 902 b 316 838 312 902 309 886 m 717 428 b 737 0 717 133 716 63 l 515 0 b 504 69 510 20 507 43 l 495 69 b 298 -14 450 16 375 -14 b 49 203 173 -14 49 60 b 504 447 49 387 252 431 l 504 467 b 398 574 504 528 470 574 b 294 497 339 574 306 541 l 77 497 b 401 730 116 686 265 730 b 717 428 593 730 717 643 m 372 127 b 504 281 454 127 504 185 l 504 314 b 271 208 368 304 271 282 b 372 127 271 159 312 127 "},"æ":{"ha":1257,"x_min":0,"x_max":0,"o":"m 872 730 b 1210 301 1117 730 1230 534 l 723 301 b 879 155 739 199 800 155 b 995 225 952 155 981 186 l 1206 225 b 865 -14 1171 95 1054 -14 b 601 102 763 -14 667 27 l 593 102 b 296 -14 537 23 447 -14 b 49 195 173 -14 49 60 b 504 432 49 387 252 418 l 504 467 b 405 574 504 528 470 574 b 286 497 332 574 301 541 l 70 497 b 417 730 109 686 258 730 b 640 653 508 730 587 706 b 872 730 703 703 783 730 m 1004 440 b 866 570 999 517 954 570 b 726 440 803 570 746 540 m 371 127 b 504 281 454 127 504 185 l 504 299 b 271 206 368 291 271 282 b 371 127 271 159 312 127 "},"b":{"ha":873,"x_min":0,"x_max":0,"o":"m 83 0 l 83 959 l 301 959 l 301 641 l 309 641 b 513 730 355 704 424 730 b 825 358 677 730 825 599 b 513 -14 825 117 677 -14 b 309 74 424 -14 355 11 l 301 74 l 301 0 m 301 358 b 454 160 301 242 358 160 b 607 358 550 160 607 242 b 454 556 607 474 550 556 b 301 358 358 556 301 474 "},"c":{"ha":786,"x_min":0,"x_max":0,"o":"m 745 242 b 401 -14 713 86 599 -14 b 42 358 209 -14 42 125 b 401 730 42 591 209 730 b 740 477 599 730 707 631 l 533 477 b 412 556 523 521 483 556 b 259 358 319 556 259 481 b 412 160 259 235 319 160 b 537 242 495 160 527 190 "},"ć":{"ha":786,"x_min":0,"x_max":0,"o":"m 319 798 l 480 959 l 700 959 l 494 798 m 745 242 b 401 -14 713 86 599 -14 b 42 358 209 -14 42 125 b 401 730 42 591 209 730 b 740 477 599 730 707 631 l 533 477 b 412 556 523 521 483 556 b 259 358 319 556 259 481 b 412 160 259 235 319 160 b 537 242 495 160 527 190 "},"č":{"ha":786,"x_min":0,"x_max":0,"o":"m 298 1021 l 401 908 l 505 1021 l 616 936 l 471 779 l 332 779 l 188 936 m 745 242 b 401 -14 713 86 599 -14 b 42 358 209 -14 42 125 b 401 730 42 591 209 730 b 740 477 599 730 707 631 l 533 477 b 412 556 523 521 483 556 b 259 358 319 556 259 481 b 412 160 259 235 319 160 b 537 242 495 160 527 190 "},"ç":{"ha":786,"x_min":0,"x_max":0,"o":"m 745 242 b 464 -10 716 103 623 9 l 441 -42 b 557 -140 503 -42 557 -86 b 248 -226 557 -262 357 -282 l 261 -122 b 408 -117 328 -149 408 -160 b 266 -87 408 -77 328 -77 l 318 -6 b 42 358 163 29 42 159 b 401 730 42 591 209 730 b 740 477 599 730 707 631 l 533 477 b 412 556 523 521 483 556 b 259 358 319 556 259 481 b 412 160 259 235 319 160 b 537 242 495 160 527 190 "},"ċ":{"ha":786,"x_min":0,"x_max":0,"o":"m 292 818 l 292 1031 l 510 1031 l 510 818 m 745 242 b 401 -14 713 86 599 -14 b 42 358 209 -14 42 125 b 401 730 42 591 209 730 b 740 477 599 730 707 631 l 533 477 b 412 556 523 521 483 556 b 259 358 319 556 259 481 b 412 160 259 235 319 160 b 537 242 495 160 527 190 "},"d":{"ha":881,"x_min":0,"x_max":0,"o":"m 368 -14 b 56 358 203 -14 56 117 b 368 730 56 599 203 730 b 571 641 457 730 525 704 l 578 641 l 578 959 l 798 959 l 798 0 l 578 0 l 578 74 l 571 74 b 368 -14 525 11 457 -14 m 427 160 b 578 358 523 160 578 242 b 427 556 578 474 523 556 b 273 358 331 556 273 474 b 427 160 273 242 331 160 "},"ð":{"ha":948,"x_min":0,"x_max":0,"o":"m 905 932 l 905 825 l 802 806 l 802 434 b 394 -14 802 190 672 -14 b 42 344 193 -14 42 136 b 365 730 42 620 193 730 b 599 599 477 730 560 692 l 603 599 l 603 769 l 494 749 l 494 856 l 603 876 l 603 959 l 802 959 l 802 914 m 421 160 b 581 358 528 160 581 238 b 421 556 581 478 528 556 b 259 358 314 556 259 478 b 421 160 259 238 314 160 "},"ď":{"ha":1008,"x_min":0,"x_max":0,"o":"m 368 -14 b 56 358 203 -14 56 117 b 368 730 56 599 203 730 b 571 641 457 730 525 704 l 578 641 l 578 959 l 798 959 l 798 0 l 578 0 l 578 74 l 571 74 b 368 -14 525 11 457 -14 m 849 788 l 849 959 l 995 959 l 956 788 m 427 160 b 578 358 523 160 578 242 b 427 556 578 474 523 556 b 273 358 331 556 273 474 b 427 160 273 242 331 160 "},"đ":{"ha":862,"x_min":0,"x_max":0,"o":"m 835 895 l 835 750 l 783 750 l 783 0 l 566 0 l 566 74 b 354 -14 514 13 442 -14 b 42 358 189 -14 42 117 b 354 730 42 599 189 730 b 566 641 442 730 514 703 l 566 750 l 473 750 l 473 895 l 566 895 l 566 959 l 783 959 l 783 895 m 412 160 b 566 358 515 160 566 231 b 412 556 566 477 515 556 b 259 358 316 556 259 474 b 412 160 259 242 316 160 "},"e":{"ha":770,"x_min":0,"x_max":0,"o":"m 395 730 b 733 301 640 730 755 534 l 248 301 b 402 155 263 199 324 155 b 520 225 477 155 504 186 l 729 225 b 389 -14 694 95 578 -14 b 34 358 202 -14 34 125 b 395 730 34 591 195 730 m 528 440 b 392 570 524 517 475 570 b 251 440 325 570 269 537 "},"é":{"ha":770,"x_min":0,"x_max":0,"o":"m 693 959 l 487 798 l 312 798 l 473 959 m 395 730 b 733 301 640 730 755 534 l 248 301 b 402 155 263 199 324 155 b 520 225 477 155 504 186 l 729 225 b 389 -14 694 95 578 -14 b 34 358 202 -14 34 125 b 395 730 34 591 195 730 m 528 440 b 392 570 524 517 475 570 b 251 440 325 570 269 537 "},"ě":{"ha":770,"x_min":0,"x_max":0,"o":"m 465 779 l 326 779 l 182 936 l 292 1021 l 395 908 l 500 1021 l 610 936 m 395 730 b 733 301 640 730 755 534 l 248 301 b 402 155 263 199 324 155 b 520 225 477 155 504 186 l 729 225 b 389 -14 694 95 578 -14 b 34 358 202 -14 34 125 b 395 730 34 591 195 730 m 528 440 b 392 570 524 517 475 570 b 251 440 325 570 269 537 "},"ê":{"ha":770,"x_min":0,"x_max":0,"o":"m 395 859 l 292 746 l 182 830 l 326 988 l 465 988 l 610 830 l 500 746 m 395 730 b 733 301 640 730 755 534 l 248 301 b 402 155 263 199 324 155 b 520 225 477 155 504 186 l 729 225 b 389 -14 694 95 578 -14 b 34 358 202 -14 34 125 b 395 730 34 591 195 730 m 528 440 b 392 570 524 517 475 570 b 251 440 325 570 269 537 "},"ë":{"ha":770,"x_min":0,"x_max":0,"o":"m 359 1031 l 359 818 l 142 818 l 142 1031 m 653 1031 l 653 818 l 435 818 l 435 1031 m 395 730 b 733 301 640 730 755 534 l 248 301 b 402 155 263 199 324 155 b 520 225 477 155 504 186 l 729 225 b 389 -14 694 95 578 -14 b 34 358 202 -14 34 125 b 395 730 34 591 195 730 m 528 440 b 392 570 524 517 475 570 b 251 440 325 570 269 537 "},"ė":{"ha":770,"x_min":0,"x_max":0,"o":"m 504 1031 l 504 818 l 286 818 l 286 1031 m 395 730 b 733 301 640 730 755 534 l 248 301 b 402 155 263 199 324 155 b 520 225 477 155 504 186 l 729 225 b 389 -14 694 95 578 -14 b 34 358 202 -14 34 125 b 395 730 34 591 195 730 m 528 440 b 392 570 524 517 475 570 b 251 440 325 570 269 537 "},"è":{"ha":770,"x_min":0,"x_max":0,"o":"m 478 798 l 304 798 l 97 959 l 318 959 m 395 730 b 733 301 640 730 755 534 l 248 301 b 402 155 263 199 324 155 b 520 225 477 155 504 186 l 729 225 b 389 -14 694 95 578 -14 b 34 358 202 -14 34 125 b 395 730 34 591 195 730 m 528 440 b 392 570 524 517 475 570 b 251 440 325 570 269 537 "},"ē":{"ha":770,"x_min":0,"x_max":0,"o":"m 620 959 l 620 822 l 170 822 l 170 959 m 395 730 b 733 301 640 730 755 534 l 248 301 b 402 155 263 199 324 155 b 520 225 477 155 504 186 l 729 225 b 389 -14 694 95 578 -14 b 34 358 202 -14 34 125 b 395 730 34 591 195 730 m 528 440 b 392 570 524 517 475 570 b 251 440 325 570 269 537 "},"ę":{"ha":770,"x_min":0,"x_max":0,"o":"m 395 730 b 733 301 640 730 755 534 l 248 301 b 402 155 263 199 324 155 b 520 225 477 155 504 186 l 729 225 b 485 -4 700 117 617 26 b 457 -37 468 -14 457 -24 b 501 -67 457 -60 477 -67 b 596 -50 531 -67 570 -57 l 568 -202 b 444 -225 530 -218 481 -225 b 266 -86 331 -225 266 -165 b 296 -3 266 -62 276 -30 b 34 358 149 36 34 165 b 395 730 34 591 195 730 m 528 440 b 392 570 524 517 475 570 b 251 440 325 570 269 537 "},"f":{"ha":649,"x_min":0,"x_max":0,"o":"m 473 785 b 398 716 417 785 398 772 l 607 716 l 607 541 l 398 541 l 398 0 l 180 0 l 180 541 l 27 541 l 27 716 l 180 716 l 180 722 b 408 959 180 906 239 959 l 607 959 l 607 785 "},"g":{"ha":839,"x_min":0,"x_max":0,"o":"m 425 -243 b 66 -10 259 -243 103 -199 l 281 -10 b 414 -83 291 -56 334 -83 b 566 57 521 -83 566 -34 l 566 132 l 557 132 b 354 43 511 69 442 43 b 42 379 189 43 42 178 b 354 730 42 596 189 730 b 557 641 442 730 511 704 l 566 641 l 566 716 l 783 716 l 783 57 b 425 -243 783 -178 587 -243 m 412 218 b 566 387 508 218 566 286 b 412 556 566 487 508 556 b 259 387 316 556 259 487 b 412 218 259 286 316 218 "},"ğ":{"ha":839,"x_min":0,"x_max":0,"o":"m 587 974 b 389 773 587 871 507 773 b 193 974 273 773 193 871 l 314 974 b 389 879 314 919 336 879 b 467 974 442 879 467 919 m 425 -243 b 66 -10 259 -243 103 -199 l 281 -10 b 414 -83 291 -56 334 -83 b 566 57 521 -83 566 -34 l 566 132 l 557 132 b 354 43 511 69 442 43 b 42 379 189 43 42 178 b 354 730 42 596 189 730 b 557 641 442 730 511 704 l 566 641 l 566 716 l 783 716 l 783 57 b 425 -243 783 -178 587 -243 m 412 218 b 566 387 508 218 566 286 b 412 556 566 487 508 556 b 259 387 316 556 259 487 b 412 218 259 286 316 218 "},"ģ":{"ha":839,"x_min":0,"x_max":0,"o":"m 599 1072 l 478 843 l 291 843 l 458 1072 m 566 716 l 783 716 l 783 43 b 420 -252 783 -200 581 -252 b 73 -24 255 -252 103 -182 l 289 -24 b 399 -92 301 -69 344 -92 b 566 43 507 -92 566 -57 l 566 117 b 354 29 514 56 442 29 b 42 379 189 29 42 163 b 354 730 42 596 189 730 b 566 641 442 730 514 703 m 412 203 b 566 379 515 203 566 278 b 412 556 566 481 515 556 b 259 379 316 556 259 481 b 412 203 259 278 316 203 "},"ġ":{"ha":839,"x_min":0,"x_max":0,"o":"m 281 818 l 281 1031 l 498 1031 l 498 818 m 425 -243 b 66 -10 259 -243 103 -199 l 281 -10 b 414 -83 291 -56 334 -83 b 566 57 521 -83 566 -34 l 566 132 l 557 132 b 354 43 511 69 442 43 b 42 379 189 43 42 178 b 354 730 42 596 189 730 b 557 641 442 730 511 704 l 566 641 l 566 716 l 783 716 l 783 57 b 425 -243 783 -178 587 -243 m 412 218 b 566 387 508 218 566 286 b 412 556 566 487 508 556 b 259 387 316 556 259 487 b 412 218 259 286 316 218 "},"h":{"ha":818,"x_min":0,"x_max":0,"o":"m 70 0 l 70 959 l 288 959 l 288 627 l 296 627 b 514 730 344 689 412 730 b 749 445 672 730 749 634 l 749 0 l 531 0 l 531 402 b 420 556 531 518 501 556 b 288 388 334 556 288 511 l 288 0 "},"ħ":{"ha":832,"x_min":0,"x_max":0,"o":"m 528 730 b 763 445 686 730 763 634 l 763 0 l 546 0 l 546 402 b 434 556 546 518 515 556 b 302 388 348 556 302 511 l 302 0 l 84 0 l 84 750 l 27 750 l 27 895 l 84 895 l 84 959 l 302 959 l 302 895 l 391 895 l 391 750 l 302 750 l 302 627 l 311 627 b 528 730 358 689 427 730 "},"i":{"ha":385,"x_min":0,"x_max":0,"o":"m 83 760 l 83 959 l 301 959 l 301 760 m 83 0 l 83 716 l 301 716 l 301 0 "},"ı":{"ha":329,"x_min":0,"x_max":0,"o":"m 56 0 l 56 716 l 273 716 l 273 0 "},"í":{"ha":415,"x_min":0,"x_max":0,"o":"m -39 888 l 296 1032 l 345 895 l -3 786 m 42 0 l 42 716 l 259 716 l 259 0 "},"ǐ":{"ha":329,"x_min":0,"x_max":0,"o":"m 62 1021 l 165 908 l 269 1021 l 379 936 l 235 779 l 96 779 l -49 936 m 56 0 l 56 716 l 273 716 l 273 0 "},"î":{"ha":525,"x_min":0,"x_max":0,"o":"m 169 750 l 70 819 l 186 959 l 339 959 l 455 819 l 355 750 l 262 868 m 155 0 l 155 716 l 372 716 l 372 0 "},"ï":{"ha":568,"x_min":0,"x_max":0,"o":"m 27 818 l 27 1031 l 246 1031 l 246 818 m 322 818 l 322 1031 l 540 1031 l 540 818 m 175 0 l 175 716 l 392 716 l 392 0 "},"ì":{"ha":405,"x_min":0,"x_max":0,"o":"m 444 888 l 408 786 l 62 895 l 110 1032 m 146 0 l 146 716 l 364 716 l 364 0 "},"ī":{"ha":358,"x_min":0,"x_max":0,"o":"m 13 959 l 345 959 l 345 822 l 13 822 m 70 0 l 70 716 l 288 716 l 288 0 "},"į":{"ha":329,"x_min":0,"x_max":0,"o":"m 273 959 l 273 760 l 56 760 l 56 959 m 196 -99 b 291 -82 226 -99 263 -89 l 262 -233 b 139 -256 225 -249 176 -256 b -39 -117 24 -256 -39 -196 b 54 26 -39 -73 -6 -10 l 56 26 l 56 716 l 273 716 l 273 0 b 152 -69 221 -17 152 -37 b 196 -99 152 -92 170 -99 "},"j":{"ha":412,"x_min":0,"x_max":0,"o":"m 97 760 l 97 959 l 315 959 l 315 760 m 76 -243 l 97 0 l 97 716 l 315 716 l 315 0 l 295 -243 "},"k":{"ha":859,"x_min":0,"x_max":0,"o":"m 832 0 l 540 0 l 301 291 l 301 0 l 83 0 l 83 959 l 301 959 l 301 448 l 538 716 l 818 716 l 495 372 "},"ķ":{"ha":832,"x_min":0,"x_max":0,"o":"m 805 716 l 468 372 l 805 0 l 513 0 l 301 272 l 301 0 l 83 0 l 83 959 l 301 959 l 301 464 l 513 716 m 282 -291 l 282 -77 l 500 -77 l 500 -291 l 394 -483 l 275 -481 l 351 -291 "},"l":{"ha":385,"x_min":0,"x_max":0,"o":"m 83 0 l 83 959 l 301 959 l 301 0 "},"ĺ":{"ha":385,"x_min":0,"x_max":0,"o":"m 112 1041 l 272 1203 l 493 1203 l 286 1041 m 83 0 l 83 959 l 301 959 l 301 0 "},"ľ":{"ha":385,"x_min":0,"x_max":0,"o":"m 83 0 l 83 959 l 301 959 l 301 0 m 369 788 l 369 959 l 515 959 l 477 788 "},"ļ":{"ha":398,"x_min":0,"x_max":0,"o":"m 125 0 l 125 959 l 344 959 l 344 0 m 27 -301 l 149 -72 l 336 -72 l 168 -301 "},"ł":{"ha":468,"x_min":0,"x_max":0,"o":"m 398 587 l 398 399 l 344 381 l 344 0 l 125 0 l 125 304 l 70 285 l 70 473 l 125 491 l 125 959 l 344 959 l 344 568 "},"m":{"ha":1224,"x_min":0,"x_max":0,"o":"m 70 0 l 70 716 l 288 716 l 288 630 l 296 630 b 485 730 335 690 391 730 b 682 619 574 730 641 694 l 690 619 b 924 730 743 690 816 730 b 1154 460 1081 730 1154 643 l 1154 0 l 936 0 l 936 421 b 839 556 936 504 915 556 b 720 421 763 556 720 504 l 720 0 l 503 0 l 503 421 b 405 556 503 504 483 556 b 288 421 329 556 288 504 l 288 0 "},"n":{"ha":818,"x_min":0,"x_max":0,"o":"m 70 0 l 70 716 l 288 716 l 288 627 l 296 627 b 514 730 344 689 412 730 b 749 445 672 730 749 634 l 749 0 l 531 0 l 531 402 b 421 556 531 518 501 556 b 288 388 334 556 288 511 l 288 0 "},"ń":{"ha":818,"x_min":0,"x_max":0,"o":"m 335 798 l 495 959 l 716 959 l 510 798 m 70 0 l 70 716 l 288 716 l 288 627 l 296 627 b 514 730 344 689 412 730 b 749 445 672 730 749 634 l 749 0 l 531 0 l 531 402 b 421 556 531 518 501 556 b 288 388 334 556 288 511 l 288 0 "},"ň":{"ha":818,"x_min":0,"x_max":0,"o":"m 314 1021 l 417 908 l 521 1021 l 631 936 l 487 779 l 348 779 l 203 936 m 70 0 l 70 716 l 288 716 l 288 627 l 296 627 b 514 730 344 689 412 730 b 749 445 672 730 749 634 l 749 0 l 531 0 l 531 402 b 421 556 531 518 501 556 b 288 388 334 556 288 511 l 288 0 "},"ņ":{"ha":819,"x_min":0,"x_max":0,"o":"m 70 0 l 70 716 l 288 716 l 288 627 l 296 627 b 514 730 344 689 412 730 b 749 445 672 730 749 634 l 749 0 l 531 0 l 531 402 b 421 556 531 518 501 556 b 288 388 334 556 288 511 l 288 0 m 208 -301 l 328 -72 l 515 -72 l 348 -301 "},"ŋ":{"ha":822,"x_min":0,"x_max":0,"o":"m 515 730 b 750 445 673 730 750 634 l 750 -24 b 523 -243 750 -190 692 -243 l 421 -243 l 421 -87 l 460 -87 b 533 -17 514 -87 533 -74 l 533 402 b 422 556 533 518 503 556 b 289 388 335 556 289 511 l 289 0 l 72 0 l 72 716 l 289 716 l 289 627 l 298 627 b 515 730 345 689 414 730 "},"ñ":{"ha":818,"x_min":0,"x_max":0,"o":"m 196 838 b 339 1024 175 936 246 1024 b 495 961 424 1024 457 961 b 518 1024 524 961 525 977 l 639 1024 b 495 838 660 925 588 838 b 339 902 410 838 379 902 b 316 838 312 902 309 886 m 70 0 l 70 716 l 288 716 l 288 627 l 296 627 b 514 730 344 689 412 730 b 749 445 672 730 749 634 l 749 0 l 531 0 l 531 402 b 421 556 531 518 501 556 b 288 388 334 556 288 511 l 288 0 "},"o":{"ha":816,"x_min":0,"x_max":0,"o":"m 408 -14 b 34 358 202 -14 34 125 b 408 730 34 591 202 730 b 782 358 616 730 782 591 b 408 -14 782 125 616 -14 m 408 160 b 564 358 501 160 564 235 b 408 556 564 481 501 556 b 253 358 315 556 253 481 b 408 160 253 235 315 160 "},"ó":{"ha":816,"x_min":0,"x_max":0,"o":"m 325 798 l 485 959 l 706 959 l 500 798 m 408 -14 b 34 358 202 -14 34 125 b 408 730 34 591 202 730 b 782 358 616 730 782 591 b 408 -14 782 125 616 -14 m 408 160 b 564 358 501 160 564 235 b 408 556 564 481 501 556 b 253 358 315 556 253 481 b 408 160 253 235 315 160 "},"ǒ":{"ha":816,"x_min":0,"x_max":0,"o":"m 305 1021 l 408 908 l 513 1021 l 623 936 l 478 779 l 339 779 l 195 936 m 408 -14 b 34 358 202 -14 34 125 b 408 730 34 591 202 730 b 782 358 616 730 782 591 b 408 -14 782 125 616 -14 m 408 160 b 564 358 501 160 564 235 b 408 556 564 481 501 556 b 253 358 315 556 253 481 b 408 160 253 235 315 160 "},"ô":{"ha":816,"x_min":0,"x_max":0,"o":"m 305 746 l 195 830 l 339 988 l 478 988 l 623 830 l 513 746 l 408 859 m 408 -14 b 34 358 202 -14 34 125 b 408 730 34 591 202 730 b 782 358 616 730 782 591 b 408 -14 782 125 616 -14 m 408 160 b 564 358 501 160 564 235 b 408 556 564 481 501 556 b 253 358 315 556 253 481 b 408 160 253 235 315 160 "},"ö":{"ha":816,"x_min":0,"x_max":0,"o":"m 155 818 l 155 1031 l 372 1031 l 372 818 m 448 818 l 448 1031 l 666 1031 l 666 818 m 408 -14 b 34 358 202 -14 34 125 b 408 730 34 591 202 730 b 782 358 616 730 782 591 b 408 -14 782 125 616 -14 m 408 160 b 564 358 501 160 564 235 b 408 556 564 481 501 556 b 253 358 315 556 253 481 b 408 160 253 235 315 160 "},"ò":{"ha":816,"x_min":0,"x_max":0,"o":"m 316 798 l 110 959 l 331 959 l 491 798 m 408 -14 b 34 358 202 -14 34 125 b 408 730 34 591 202 730 b 782 358 616 730 782 591 b 408 -14 782 125 616 -14 m 408 160 b 564 358 501 160 564 235 b 408 556 564 481 501 556 b 253 358 315 556 253 481 b 408 160 253 235 315 160 "},"ő":{"ha":816,"x_min":0,"x_max":0,"o":"m 192 798 l 324 959 l 544 959 l 367 798 m 478 798 l 610 959 l 830 959 l 653 798 m 408 -14 b 34 358 202 -14 34 125 b 408 730 34 591 202 730 b 782 358 616 730 782 591 b 408 -14 782 125 616 -14 m 408 160 b 564 358 501 160 564 235 b 408 556 564 481 501 556 b 253 358 315 556 253 481 b 408 160 253 235 315 160 "},"ō":{"ha":816,"x_min":0,"x_max":0,"o":"m 183 959 l 633 959 l 633 822 l 183 822 m 408 -14 b 34 358 202 -14 34 125 b 408 730 34 591 202 730 b 782 358 616 730 782 591 b 408 -14 782 125 616 -14 m 408 160 b 564 358 501 160 564 235 b 408 556 564 481 501 556 b 253 358 315 556 253 481 b 408 160 253 235 315 160 "},"ø":{"ha":830,"x_min":0,"x_max":0,"o":"m 674 636 b 789 358 746 573 789 478 b 415 -14 789 125 623 -14 b 253 17 358 -14 302 -3 l 242 0 l 103 0 l 158 79 b 42 358 86 143 42 238 b 415 730 42 591 209 730 b 578 699 474 730 528 719 l 590 716 l 729 716 m 259 358 b 276 255 259 318 265 284 l 474 546 b 415 556 457 553 437 556 b 259 358 315 556 259 481 m 415 160 b 571 358 515 160 571 235 b 554 460 571 397 566 431 l 358 170 b 415 160 375 163 394 160 "},"õ":{"ha":816,"x_min":0,"x_max":0,"o":"m 188 838 b 331 1024 166 936 238 1024 b 487 961 415 1024 448 961 b 510 1024 515 961 517 977 l 630 1024 b 487 838 651 925 580 838 b 331 902 401 838 371 902 b 308 838 304 902 301 886 m 408 -14 b 34 358 202 -14 34 125 b 408 730 34 591 202 730 b 782 358 616 730 782 591 b 408 -14 782 125 616 -14 m 408 160 b 564 358 501 160 564 235 b 408 556 564 481 501 556 b 253 358 315 556 253 481 b 408 160 253 235 315 160 "},"œ":{"ha":1320,"x_min":0,"x_max":0,"o":"m 939 730 b 1276 308 1170 730 1297 541 l 790 308 b 925 153 796 206 855 153 b 1055 238 1012 153 1041 199 l 1266 238 b 925 -14 1230 107 1114 -14 b 674 103 822 -14 733 27 b 415 -14 619 27 530 -14 b 42 358 209 -14 42 125 b 415 730 42 591 209 730 b 676 611 530 730 619 689 b 939 730 736 689 828 730 m 1071 440 b 934 570 1060 508 1021 570 b 790 440 846 570 802 508 m 415 160 b 571 358 515 160 571 235 b 415 556 571 481 515 556 b 259 358 315 556 259 481 b 415 160 259 235 315 160 "},"p":{"ha":873,"x_min":0,"x_max":0,"o":"m 83 -243 l 83 716 l 301 716 l 301 641 l 309 641 b 513 730 355 704 424 730 b 825 358 677 730 825 599 b 513 -14 825 117 677 -14 b 309 74 424 -14 355 11 l 301 74 l 301 -243 m 301 358 b 454 160 301 242 358 160 b 607 358 550 160 607 242 b 454 556 607 474 550 556 b 301 358 358 556 301 474 "},"þ":{"ha":881,"x_min":0,"x_max":0,"o":"m 83 -243 l 83 959 l 301 959 l 301 641 l 309 641 b 513 730 355 704 424 730 b 825 358 677 730 825 599 b 513 -14 825 117 677 -14 b 309 74 424 -14 355 11 l 301 74 l 301 -243 m 301 358 b 454 160 301 242 358 160 b 607 358 550 160 607 242 b 454 556 607 474 550 556 b 301 358 358 556 301 474 "},"q":{"ha":873,"x_min":0,"x_max":0,"o":"m 49 358 b 361 730 49 599 196 730 b 564 641 450 730 518 704 l 573 641 l 573 716 l 790 716 l 790 -243 l 573 -243 l 573 74 l 564 74 b 361 -14 518 11 450 -14 b 49 358 196 -14 49 117 m 266 358 b 420 160 266 242 324 160 b 573 358 515 160 573 242 b 420 556 573 474 515 556 b 266 358 324 556 266 474 "},"r":{"ha":567,"x_min":0,"x_max":0,"o":"m 83 0 l 83 716 l 301 716 l 301 646 l 309 646 b 450 716 341 694 382 716 l 538 716 l 538 541 l 454 541 b 301 322 326 541 301 490 l 301 0 "},"ŕ":{"ha":567,"x_min":0,"x_max":0,"o":"m 206 798 l 367 959 l 587 959 l 381 798 m 83 0 l 83 716 l 301 716 l 301 646 l 309 646 b 450 716 341 694 382 716 l 538 716 l 538 541 l 454 541 b 301 322 326 541 301 490 l 301 0 "},"ř":{"ha":567,"x_min":0,"x_max":0,"o":"m 185 1021 l 288 908 l 392 1021 l 503 936 l 358 779 l 219 779 l 74 936 m 83 0 l 83 716 l 301 716 l 301 646 l 309 646 b 450 716 341 694 382 716 l 538 716 l 538 541 l 454 541 b 301 322 326 541 301 490 l 301 0 "},"ŗ":{"ha":505,"x_min":0,"x_max":0,"o":"m 83 0 l 83 716 l 301 716 l 301 646 l 309 646 b 450 716 341 694 382 716 l 533 716 l 533 541 l 454 541 b 301 322 326 541 301 490 l 301 0 m -19 -301 l 103 -72 l 291 -72 l 122 -301 "},"s":{"ha":765,"x_min":0,"x_max":0,"o":"m 395 -14 b 49 236 208 -14 76 73 l 253 236 b 392 146 273 176 306 146 b 504 210 451 146 504 166 b 79 504 504 347 79 210 b 384 730 79 670 252 730 b 697 497 525 730 670 650 l 497 497 b 381 570 484 543 452 570 b 281 510 302 570 281 540 b 716 222 281 407 716 505 b 395 -14 716 66 581 -14 "},"ś":{"ha":765,"x_min":0,"x_max":0,"o":"m 309 798 l 470 959 l 690 959 l 484 798 m 395 -14 b 49 236 208 -14 76 73 l 253 236 b 392 146 273 176 306 146 b 504 210 451 146 504 166 b 79 504 504 347 79 210 b 384 730 79 670 252 730 b 697 497 525 730 670 650 l 497 497 b 381 570 484 543 452 570 b 281 510 302 570 281 540 b 716 222 281 407 716 505 b 395 -14 716 66 581 -14 "},"š":{"ha":765,"x_min":0,"x_max":0,"o":"m 288 1021 l 391 908 l 495 1021 l 606 936 l 461 779 l 322 779 l 178 936 m 395 -14 b 49 236 208 -14 76 73 l 253 236 b 392 146 273 176 306 146 b 504 210 451 146 504 166 b 79 504 504 347 79 210 b 384 730 79 670 252 730 b 697 497 525 730 670 650 l 497 497 b 381 570 484 543 452 570 b 281 510 302 570 281 540 b 716 222 281 407 716 505 b 395 -14 716 66 581 -14 "},"ş":{"ha":765,"x_min":0,"x_max":0,"o":"m 716 222 b 458 -11 716 84 611 6 l 435 -42 b 551 -140 497 -42 551 -86 b 242 -226 551 -262 351 -282 l 255 -122 b 402 -117 322 -149 402 -160 b 261 -87 402 -77 322 -77 l 311 -9 b 49 236 169 14 72 99 l 253 236 b 392 146 273 176 306 146 b 504 210 451 146 504 166 b 79 504 504 347 79 210 b 384 730 79 670 252 730 b 697 497 525 730 670 650 l 497 497 b 381 570 484 543 452 570 b 281 510 302 570 281 540 b 716 222 281 407 716 505 "},"ș":{"ha":765,"x_min":0,"x_max":0,"o":"m 395 -14 b 49 236 208 -14 76 73 l 253 236 b 392 146 273 176 306 146 b 504 210 451 146 504 166 b 79 504 504 347 79 210 b 384 730 79 670 252 730 b 697 497 525 730 670 650 l 497 497 b 381 570 484 543 452 570 b 281 510 302 570 281 540 b 716 222 281 407 716 505 b 395 -14 716 66 581 -14 m 276 -483 l 352 -292 l 284 -292 l 284 -79 l 501 -79 l 501 -292 l 394 -484 "},"ß":{"ha":901,"x_min":0,"x_max":0,"o":"m 83 0 l 83 578 b 438 959 83 802 150 959 b 795 712 644 959 795 878 b 667 521 795 590 713 544 l 667 513 b 829 271 717 500 829 435 b 477 0 829 82 682 0 l 374 0 l 374 160 l 477 160 b 611 291 567 160 611 208 b 457 427 611 382 558 427 l 374 427 l 374 600 l 447 600 b 584 697 538 600 584 637 b 458 785 584 757 538 785 b 301 630 318 785 301 702 l 301 0 "},"t":{"ha":634,"x_min":0,"x_max":0,"o":"m 27 541 l 27 716 l 112 716 b 166 773 147 716 166 736 l 166 879 l 385 879 l 385 716 l 593 716 l 593 541 l 385 541 l 385 245 b 458 175 385 188 402 175 l 593 175 l 593 0 l 394 0 b 166 238 225 0 166 53 l 166 541 "},"ŧ":{"ha":676,"x_min":0,"x_max":0,"o":"m 607 541 l 398 541 l 398 484 l 607 484 l 607 309 l 398 309 l 398 245 b 473 175 398 188 417 175 l 607 175 l 607 0 l 408 0 b 180 238 239 0 180 53 l 180 309 l 27 309 l 27 484 l 180 484 l 180 541 l 27 541 l 27 716 l 125 716 b 180 773 162 716 180 736 l 180 879 l 398 879 l 398 716 l 607 716 "},"ť":{"ha":634,"x_min":0,"x_max":0,"o":"m 451 788 l 451 959 l 597 959 l 558 788 m 27 541 l 27 716 l 112 716 b 166 773 147 716 166 736 l 166 879 l 385 879 l 385 716 l 593 716 l 593 541 l 385 541 l 385 245 b 458 175 385 188 402 175 l 593 175 l 593 0 l 394 0 b 166 238 225 0 166 53 l 166 541 "},"ţ":{"ha":634,"x_min":0,"x_max":0,"o":"m 483 -42 b 599 -140 544 -42 599 -86 b 289 -226 599 -262 398 -282 l 302 -122 b 450 -117 369 -149 450 -160 b 308 -87 450 -77 369 -77 l 364 0 b 166 238 218 7 166 64 l 166 541 l 27 541 l 27 716 l 112 716 b 166 773 147 716 166 736 l 166 879 l 385 879 l 385 716 l 593 716 l 593 541 l 385 541 l 385 245 b 458 175 385 188 402 175 l 593 175 l 593 0 l 514 0 "},"ț":{"ha":634,"x_min":0,"x_max":0,"o":"m 27 541 l 27 716 l 112 716 b 166 773 147 716 166 736 l 166 879 l 385 879 l 385 716 l 593 716 l 593 541 l 385 541 l 385 245 b 458 175 385 188 402 175 l 593 175 l 593 0 l 394 0 b 166 238 225 0 166 53 l 166 541 m 324 -483 l 399 -292 l 331 -292 l 331 -79 l 548 -79 l 548 -292 l 441 -484 "},"u":{"ha":810,"x_min":0,"x_max":0,"o":"m 316 -14 b 70 278 158 -14 70 89 l 70 716 l 288 716 l 288 314 b 397 160 288 200 316 160 b 524 328 480 160 524 205 l 524 716 l 742 716 l 742 0 l 524 0 l 524 89 l 515 89 b 316 -14 468 27 415 -14 "},"ú":{"ha":810,"x_min":0,"x_max":0,"o":"m 319 798 l 480 959 l 700 959 l 494 798 m 316 -14 b 70 278 158 -14 70 89 l 70 716 l 288 716 l 288 314 b 397 160 288 200 316 160 b 524 328 480 160 524 205 l 524 716 l 742 716 l 742 0 l 524 0 l 524 89 l 515 89 b 316 -14 468 27 415 -14 "},"ǔ":{"ha":810,"x_min":0,"x_max":0,"o":"m 299 1021 l 402 908 l 507 1021 l 617 936 l 473 779 l 334 779 l 189 936 m 316 -14 b 70 278 158 -14 70 89 l 70 716 l 288 716 l 288 314 b 397 160 288 200 316 160 b 524 328 480 160 524 205 l 524 716 l 742 716 l 742 0 l 524 0 l 524 89 l 515 89 b 316 -14 468 27 415 -14 "},"û":{"ha":810,"x_min":0,"x_max":0,"o":"m 299 746 l 189 830 l 334 988 l 473 988 l 617 830 l 507 746 l 402 859 m 316 -14 b 70 278 158 -14 70 89 l 70 716 l 288 716 l 288 314 b 397 160 288 200 316 160 b 524 328 480 160 524 205 l 524 716 l 742 716 l 742 0 l 524 0 l 524 89 l 515 89 b 316 -14 468 27 415 -14 "},"ü":{"ha":810,"x_min":0,"x_max":0,"o":"m 149 818 l 149 1031 l 367 1031 l 367 818 m 442 818 l 442 1031 l 660 1031 l 660 818 m 316 -14 b 70 278 158 -14 70 89 l 70 716 l 288 716 l 288 314 b 397 160 288 200 316 160 b 524 328 480 160 524 205 l 524 716 l 742 716 l 742 0 l 524 0 l 524 89 l 515 89 b 316 -14 468 27 415 -14 "},"ù":{"ha":810,"x_min":0,"x_max":0,"o":"m 311 798 l 105 959 l 325 959 l 485 798 m 316 -14 b 70 278 158 -14 70 89 l 70 716 l 288 716 l 288 314 b 397 160 288 200 316 160 b 524 328 480 160 524 205 l 524 716 l 742 716 l 742 0 l 524 0 l 524 89 l 515 89 b 316 -14 468 27 415 -14 "},"ű":{"ha":810,"x_min":0,"x_max":0,"o":"m 186 798 l 318 959 l 538 959 l 361 798 m 473 798 l 604 959 l 825 959 l 647 798 m 316 -14 b 70 278 158 -14 70 89 l 70 716 l 288 716 l 288 314 b 397 160 288 200 316 160 b 524 328 480 160 524 205 l 524 716 l 742 716 l 742 0 l 524 0 l 524 89 l 515 89 b 316 -14 468 27 415 -14 "},"ū":{"ha":810,"x_min":0,"x_max":0,"o":"m 178 959 l 627 959 l 627 822 l 178 822 m 316 -14 b 70 278 158 -14 70 89 l 70 716 l 288 716 l 288 314 b 397 160 288 200 316 160 b 524 328 480 160 524 205 l 524 716 l 742 716 l 742 0 l 524 0 l 524 89 l 515 89 b 316 -14 468 27 415 -14 "},"ų":{"ha":810,"x_min":0,"x_max":0,"o":"m 663 -99 b 757 -82 693 -99 732 -89 l 730 -233 b 606 -256 692 -249 643 -256 b 428 -117 493 -256 428 -196 b 521 26 428 -73 461 -10 l 524 26 l 524 89 l 515 89 b 316 -14 468 27 415 -14 b 70 278 158 -14 70 89 l 70 716 l 288 716 l 288 314 b 397 160 288 200 316 160 b 524 328 480 160 524 205 l 524 716 l 742 716 l 742 0 l 740 0 b 619 -69 687 -17 619 -37 b 663 -99 619 -92 639 -99 "},"ů":{"ha":810,"x_min":0,"x_max":0,"o":"m 402 773 b 271 909 329 773 271 835 b 402 1045 271 984 329 1045 b 534 909 474 1045 534 984 b 402 773 534 835 474 773 m 402 849 b 460 909 434 849 460 876 b 402 969 460 942 434 969 b 344 909 369 969 344 942 b 402 849 344 876 369 849 m 316 -14 b 70 278 158 -14 70 89 l 70 716 l 288 716 l 288 314 b 397 160 288 200 316 160 b 524 328 480 160 524 205 l 524 716 l 742 716 l 742 0 l 524 0 l 524 89 l 515 89 b 316 -14 468 27 415 -14 "},"v":{"ha":893,"x_min":0,"x_max":0,"o":"m 620 716 l 865 716 l 574 0 l 321 0 l 27 716 l 273 716 l 447 206 "},"w":{"ha":1270,"x_min":0,"x_max":0,"o":"m 27 716 l 273 716 l 367 299 l 381 195 l 384 195 l 404 299 l 534 716 l 743 716 l 865 299 l 886 195 l 889 195 l 903 299 l 995 716 l 1241 716 l 1008 0 l 762 0 l 653 425 l 640 527 l 637 527 l 626 425 l 508 0 l 261 0 "},"ẃ":{"ha":1270,"x_min":0,"x_max":0,"o":"m 551 798 l 712 959 l 932 959 l 726 798 m 27 716 l 273 716 l 367 299 l 381 195 l 384 195 l 404 299 l 534 716 l 743 716 l 865 299 l 886 195 l 889 195 l 903 299 l 995 716 l 1241 716 l 1008 0 l 762 0 l 653 425 l 640 527 l 637 527 l 626 425 l 508 0 l 261 0 "},"ŵ":{"ha":1270,"x_min":0,"x_max":0,"o":"m 531 746 l 421 830 l 566 988 l 704 988 l 849 830 l 739 746 l 634 859 m 27 716 l 273 716 l 367 299 l 381 195 l 384 195 l 404 299 l 534 716 l 743 716 l 865 299 l 886 195 l 889 195 l 903 299 l 995 716 l 1241 716 l 1008 0 l 762 0 l 653 425 l 640 527 l 637 527 l 626 425 l 508 0 l 261 0 "},"ẅ":{"ha":1270,"x_min":0,"x_max":0,"o":"m 381 818 l 381 1031 l 599 1031 l 599 818 m 674 818 l 674 1031 l 892 1031 l 892 818 m 27 716 l 273 716 l 367 299 l 381 195 l 384 195 l 404 299 l 534 716 l 743 716 l 865 299 l 886 195 l 889 195 l 903 299 l 995 716 l 1241 716 l 1008 0 l 762 0 l 653 425 l 640 527 l 637 527 l 626 425 l 508 0 l 261 0 "},"ẁ":{"ha":1270,"x_min":0,"x_max":0,"o":"m 543 798 l 336 959 l 557 959 l 717 798 m 27 716 l 273 716 l 367 299 l 381 195 l 384 195 l 404 299 l 534 716 l 743 716 l 865 299 l 886 195 l 889 195 l 903 299 l 995 716 l 1241 716 l 1008 0 l 762 0 l 653 425 l 640 527 l 637 527 l 626 425 l 508 0 l 261 0 "},"x":{"ha":833,"x_min":0,"x_max":0,"o":"m 27 0 l 298 362 l 27 716 l 292 716 l 410 524 l 541 716 l 806 716 l 536 362 l 806 0 l 541 0 l 424 200 l 292 0 "},"y":{"ha":893,"x_min":0,"x_max":0,"o":"m 76 -243 l 76 -57 l 242 -57 b 322 -19 291 -57 308 -50 l 331 0 l 27 716 l 276 716 l 417 328 l 444 205 l 448 205 l 477 328 l 617 716 l 865 716 l 564 0 l 510 -112 b 271 -243 454 -226 379 -243 "},"ý":{"ha":893,"x_min":0,"x_max":0,"o":"m 365 798 l 525 959 l 746 959 l 540 798 m 76 -243 l 76 -57 l 242 -57 b 322 -19 291 -57 308 -50 l 331 0 l 27 716 l 276 716 l 417 328 l 444 205 l 448 205 l 477 328 l 617 716 l 865 716 l 564 0 l 510 -112 b 271 -243 454 -226 379 -243 "},"ŷ":{"ha":893,"x_min":0,"x_max":0,"o":"m 345 746 l 235 830 l 379 988 l 518 988 l 663 830 l 553 746 l 448 859 m 76 -243 l 76 -57 l 242 -57 b 322 -19 291 -57 308 -50 l 331 0 l 27 716 l 276 716 l 417 328 l 444 205 l 448 205 l 477 328 l 617 716 l 865 716 l 564 0 l 510 -112 b 271 -243 454 -226 379 -243 "},"ÿ":{"ha":893,"x_min":0,"x_max":0,"o":"m 195 818 l 195 1031 l 412 1031 l 412 818 m 488 818 l 488 1031 l 706 1031 l 706 818 m 76 -243 l 76 -57 l 242 -57 b 322 -19 291 -57 308 -50 l 331 0 l 27 716 l 276 716 l 417 328 l 444 205 l 448 205 l 477 328 l 617 716 l 865 716 l 564 0 l 510 -112 b 271 -243 454 -226 379 -243 "},"ỳ":{"ha":893,"x_min":0,"x_max":0,"o":"m 357 798 l 150 959 l 371 959 l 531 798 m 76 -243 l 76 -57 l 242 -57 b 322 -19 291 -57 308 -50 l 331 0 l 27 716 l 276 716 l 417 328 l 444 205 l 448 205 l 477 328 l 617 716 l 865 716 l 564 0 l 510 -112 b 271 -243 454 -226 379 -243 "},"z":{"ha":703,"x_min":0,"x_max":0,"o":"m 42 0 l 42 175 l 379 541 l 56 541 l 56 716 l 647 716 l 647 541 l 309 175 l 662 175 l 662 0 "},"ź":{"ha":703,"x_min":0,"x_max":0,"o":"m 263 798 l 424 959 l 644 959 l 438 798 m 42 0 l 42 175 l 379 541 l 56 541 l 56 716 l 647 716 l 647 541 l 309 175 l 662 175 l 662 0 "},"ž":{"ha":703,"x_min":0,"x_max":0,"o":"m 242 1021 l 345 908 l 450 1021 l 560 936 l 415 779 l 276 779 l 132 936 m 42 0 l 42 175 l 379 541 l 56 541 l 56 716 l 647 716 l 647 541 l 309 175 l 662 175 l 662 0 "},"ż":{"ha":703,"x_min":0,"x_max":0,"o":"m 236 818 l 236 1031 l 454 1031 l 454 818 m 42 0 l 42 175 l 379 541 l 56 541 l 56 716 l 647 716 l 647 541 l 309 175 l 662 175 l 662 0 "},"ª":{"ha":531,"x_min":0,"x_max":0,"o":"m 437 799 b 447 553 437 629 435 588 l 319 553 b 312 591 315 564 314 577 l 308 591 b 193 544 282 561 239 544 b 50 664 122 544 50 587 b 312 809 50 775 166 802 l 312 822 b 255 883 312 858 294 883 b 188 839 213 883 195 865 l 63 839 b 262 974 84 948 170 974 b 437 799 364 974 437 924 m 236 626 b 312 714 284 626 312 659 l 312 733 b 178 672 233 727 178 716 b 236 626 178 644 203 626 "},"º":{"ha":514,"x_min":0,"x_max":0,"o":"m 256 974 b 473 759 377 974 473 893 b 256 544 473 624 377 544 b 42 759 137 544 42 624 b 256 974 42 893 137 974 m 256 646 b 348 759 315 646 348 689 b 256 872 348 829 315 872 b 166 759 199 872 166 829 b 256 646 166 689 199 646 "},"⁄":{"ha":198,"x_min":0,"x_max":0,"o":"m -278 0 l 251 959 l 392 959 l -136 0 "},"½":{"ha":1151,"x_min":0,"x_max":0,"o":"m 145 412 l 145 747 l 20 747 l 20 871 l 145 871 l 145 961 l 286 961 l 286 412 m 672 959 l 813 959 l 285 0 l 143 0 m 972 208 b 871 126 924 176 886 155 l 1134 126 l 1134 0 l 682 0 b 881 304 680 137 725 205 b 997 421 981 364 997 382 b 924 493 997 467 971 493 b 836 401 871 493 842 461 l 679 401 b 934 616 686 530 790 616 b 1150 427 1064 616 1150 541 b 972 208 1150 348 1110 299 "},"¼":{"ha":1090,"x_min":0,"x_max":0,"o":"m 145 412 l 145 747 l 20 747 l 20 871 l 145 871 l 145 961 l 286 961 l 286 412 m 672 959 l 813 959 l 285 0 l 143 0 m 992 272 l 1068 272 l 1068 140 l 992 140 l 992 0 l 835 0 l 835 140 l 554 140 l 554 265 l 832 609 l 992 609 m 835 272 l 835 355 l 840 422 l 725 272 "},"¾":{"ha":1216,"x_min":0,"x_max":0,"o":"m 457 576 b 249 407 457 471 377 407 b 27 590 115 407 29 477 l 175 590 b 243 525 175 553 195 525 b 315 588 289 525 315 548 b 242 651 315 626 291 651 l 186 651 l 186 757 l 235 757 b 299 808 278 757 299 772 b 242 852 299 835 278 852 b 178 796 200 852 178 832 l 42 796 b 249 971 39 901 123 971 b 438 819 362 971 438 909 b 371 707 438 763 405 725 b 457 576 412 692 457 654 m 798 959 l 939 959 l 411 0 l 269 0 m 1118 272 l 1194 272 l 1194 140 l 1118 140 l 1118 0 l 961 0 l 961 140 l 680 140 l 680 265 l 958 609 l 1118 609 m 961 272 l 961 355 l 966 422 l 851 272 "},"⅛":{"ha":1118,"x_min":0,"x_max":0,"o":"m 145 412 l 145 747 l 20 747 l 20 871 l 145 871 l 145 961 l 286 961 l 286 412 m 672 959 l 813 959 l 285 0 l 143 0 m 999 316 b 1105 165 1047 298 1105 253 b 869 -13 1105 60 1007 -13 b 631 165 732 -13 631 60 b 737 318 631 255 692 299 b 651 444 697 335 651 369 b 869 613 651 546 740 613 b 1084 444 997 613 1084 546 b 999 316 1084 368 1038 334 m 869 485 b 795 428 823 485 795 460 b 869 371 795 394 825 371 b 942 428 914 371 942 394 b 869 485 942 460 915 485 m 869 119 b 951 189 919 119 951 149 b 869 259 951 232 919 259 b 786 189 818 259 786 232 b 869 119 786 149 818 119 "},"⅜":{"ha":1244,"x_min":0,"x_max":0,"o":"m 457 576 b 249 407 457 471 377 407 b 27 590 115 407 29 477 l 175 590 b 243 525 175 553 195 525 b 315 588 289 525 315 548 b 242 651 315 626 291 651 l 186 651 l 186 757 l 235 757 b 299 808 278 757 299 772 b 242 852 299 835 278 852 b 178 796 200 852 178 832 l 42 796 b 249 971 39 901 123 971 b 438 819 362 971 438 909 b 371 707 438 763 405 725 b 457 576 412 692 457 654 m 798 959 l 939 959 l 411 0 l 269 0 m 1125 316 b 1231 165 1173 298 1231 253 b 995 -13 1231 60 1133 -13 b 757 165 858 -13 757 60 b 863 318 757 255 818 299 b 777 444 823 335 777 369 b 995 613 777 546 866 613 b 1210 444 1123 613 1210 546 b 1125 316 1210 368 1164 334 m 995 485 b 921 428 949 485 921 460 b 995 371 921 394 951 371 b 1068 428 1040 371 1068 394 b 995 485 1068 460 1041 485 m 995 119 b 1077 189 1045 119 1077 149 b 995 259 1077 232 1045 259 b 912 189 944 259 912 232 b 995 119 912 149 944 119 "},"⅝":{"ha":1241,"x_min":0,"x_max":0,"o":"m 454 604 b 238 405 454 487 364 405 b 19 581 113 405 27 468 l 162 581 b 238 523 170 540 190 523 b 312 604 284 523 312 554 b 242 680 312 651 285 680 b 169 626 200 680 182 660 l 36 626 l 70 961 l 425 961 l 425 842 l 192 842 l 182 765 b 268 800 203 789 239 800 b 454 604 377 800 454 726 m 795 959 l 936 959 l 408 0 l 266 0 m 1123 316 b 1229 165 1170 298 1229 253 b 992 -13 1229 60 1130 -13 b 755 165 855 -13 755 60 b 861 318 755 255 815 299 b 775 444 820 335 775 369 b 992 613 775 546 863 613 b 1207 444 1120 613 1207 546 b 1123 316 1207 368 1161 334 m 992 485 b 918 428 946 485 918 460 b 992 371 918 394 948 371 b 1065 428 1037 371 1065 394 b 992 485 1065 460 1038 485 m 992 119 b 1074 189 1042 119 1074 149 b 992 259 1074 232 1042 259 b 909 189 941 259 909 232 b 992 119 909 149 941 119 "},"⅞":{"ha":1085,"x_min":0,"x_max":0,"o":"m 200 412 l 52 412 l 263 842 l 20 842 l 20 961 l 405 961 l 405 842 m 639 959 l 780 959 l 252 0 l 110 0 m 966 316 b 1072 165 1014 298 1072 253 b 836 -13 1072 60 974 -13 b 599 165 699 -13 599 60 b 704 318 599 255 659 299 b 619 444 664 335 619 369 b 836 613 619 546 707 613 b 1051 444 964 613 1051 546 b 966 316 1051 368 1005 334 m 836 485 b 762 428 790 485 762 460 b 836 371 762 394 792 371 b 909 428 881 371 909 394 b 836 485 909 460 882 485 m 836 119 b 918 189 886 119 918 149 b 836 259 918 232 886 259 b 753 189 785 259 753 232 b 836 119 753 149 785 119 "},".":{"ha":291,"x_min":0,"x_max":0,"o":"m 43 0 l 43 199 l 248 199 l 248 0 "},",":{"ha":311,"x_min":0,"x_max":0,"o":"m 43 -190 l 119 0 l 50 0 l 50 213 l 268 213 l 268 0 l 162 -192 "},":":{"ha":304,"x_min":0,"x_max":0,"o":"m 43 503 l 43 716 l 261 716 l 261 503 m 43 0 l 43 213 l 261 213 l 261 0 "},";":{"ha":311,"x_min":0,"x_max":0,"o":"m 50 503 l 50 716 l 268 716 l 268 503 m 50 -190 l 119 0 l 50 0 l 50 213 l 268 213 l 268 0 l 169 -192 "},"!":{"ha":341,"x_min":0,"x_max":0,"o":"m 76 312 l 53 716 l 53 959 l 288 959 l 288 716 l 263 312 m 62 0 l 62 213 l 279 213 l 279 0 "},"¡":{"ha":341,"x_min":0,"x_max":0,"o":"m 62 959 l 279 959 l 279 746 l 62 746 m 76 647 l 263 647 l 288 243 l 288 0 l 53 0 l 53 243 "},"?":{"ha":813,"x_min":0,"x_max":0,"o":"m 285 312 b 540 703 285 485 540 544 b 417 799 540 783 475 799 b 266 690 345 799 281 775 l 56 690 b 415 974 70 793 132 974 b 759 709 664 974 759 833 b 503 312 759 504 515 420 m 285 0 l 285 213 l 503 213 l 503 0 "},"¿":{"ha":813,"x_min":0,"x_max":0,"o":"m 530 959 l 530 746 l 311 746 l 311 959 m 530 680 b 273 278 530 435 273 415 b 404 160 273 176 339 160 b 547 298 470 160 533 185 l 759 298 b 398 -14 745 166 682 -14 b 56 278 150 -14 56 126 b 311 680 56 455 311 515 "},"·":{"ha":301,"x_min":0,"x_max":0,"o":"m 42 361 l 42 574 l 259 574 l 259 361 "},"•":{"ha":374,"x_min":0,"x_max":0,"o":"m 42 325 l 42 610 l 332 610 l 332 325 "},"*":{"ha":660,"x_min":0,"x_max":0,"o":"m 97 673 l 225 722 l 225 727 l 97 779 l 168 906 l 282 803 l 286 806 l 259 959 l 401 959 l 375 806 l 379 803 l 491 905 l 563 777 l 435 729 l 435 723 l 563 672 l 491 546 l 379 647 l 375 644 l 401 491 l 259 491 l 286 644 l 282 647 l 168 544 "},"‽":{"ha":694,"x_min":0,"x_max":0,"o":"m 415 974 b 759 709 664 974 759 833 b 488 328 759 511 507 465 l 487 312 l 301 312 l 276 673 l 511 673 l 505 599 b 540 696 525 624 540 654 b 417 799 540 783 475 799 b 266 690 345 799 281 775 l 56 690 b 415 974 70 793 132 974 m 285 0 l 285 213 l 503 213 l 503 0 "},"#":{"ha":939,"x_min":0,"x_max":0,"o":"m 856 541 l 737 541 l 709 410 l 825 410 l 783 235 l 670 235 l 620 0 l 430 0 l 480 235 l 341 235 l 291 0 l 100 0 l 150 235 l 42 235 l 83 410 l 189 410 l 218 541 l 115 541 l 156 716 l 255 716 l 308 959 l 498 959 l 445 716 l 584 716 l 637 959 l 828 959 l 775 716 l 898 716 m 518 410 l 547 541 l 408 541 l 379 410 "},"/":{"ha":649,"x_min":0,"x_max":0,"o":"m 37 -243 l 382 959 l 607 959 l 262 -243 "},"\\":{"ha":649,"x_min":0,"x_max":0,"o":"m 387 -243 l 42 959 l 266 959 l 611 -243 "},"(":{"ha":457,"x_min":0,"x_max":0,"o":"m 206 -243 b 37 351 103 -54 37 133 b 206 959 37 583 103 772 l 411 959 b 255 351 306 772 255 583 b 411 -243 255 133 306 -54 "},")":{"ha":457,"x_min":0,"x_max":0,"o":"m 42 -243 b 198 351 146 -54 198 133 b 42 959 198 583 146 772 l 246 959 b 415 351 349 772 415 583 b 246 -243 415 133 349 -54 "},"{":{"ha":467,"x_min":0,"x_max":0,"o":"m 309 -243 b 122 -20 179 -243 120 -152 b 125 190 123 39 123 132 b 42 273 125 231 102 273 l 42 455 b 125 525 107 455 125 485 b 122 722 123 578 123 669 b 309 959 120 853 179 959 l 425 959 l 425 783 b 326 712 359 783 325 773 b 329 501 328 653 328 560 b 238 365 331 418 308 378 l 238 361 b 329 215 308 348 331 298 b 326 3 328 156 328 62 b 425 -69 325 -59 359 -69 l 425 -243 "},"}":{"ha":467,"x_min":0,"x_max":0,"o":"m 42 -243 l 42 -69 b 140 3 107 -69 142 -59 b 137 215 139 62 139 156 b 229 361 136 298 159 348 l 229 365 b 137 501 159 378 136 418 b 140 712 139 560 139 653 b 42 783 142 773 107 783 l 42 959 l 158 959 b 345 722 288 959 347 853 b 342 525 344 669 344 578 b 425 455 342 485 359 455 l 425 273 b 342 190 365 273 342 231 b 345 -20 344 132 344 39 b 158 -243 347 -152 288 -243 "},"[":{"ha":484,"x_min":0,"x_max":0,"o":"m 42 -243 l 42 959 l 441 959 l 441 785 l 232 785 l 232 -69 l 441 -69 l 441 -243 "},"]":{"ha":484,"x_min":0,"x_max":0,"o":"m 42 -243 l 42 -69 l 252 -69 l 252 785 l 42 785 l 42 959 l 441 959 l 441 -243 "},"-":{"ha":558,"x_min":0,"x_max":0,"o":"m 56 530 l 503 530 l 503 355 l 56 355 "},"–":{"ha":988,"x_min":0,"x_max":0,"o":"m 56 530 l 932 530 l 932 355 l 56 355 "},"—":{"ha":1184,"x_min":0,"x_max":0,"o":"m 56 530 l 1130 530 l 1130 355 l 56 355 "},"_":{"ha":725,"x_min":0,"x_max":0,"o":"m 42 -63 l 683 -63 l 683 -238 l 42 -238 "},"‚":{"ha":278,"x_min":0,"x_max":0,"o":"m 43 -190 l 119 0 l 50 0 l 50 213 l 268 213 l 268 0 l 162 -192 "},"„":{"ha":278,"x_min":0,"x_max":0,"o":"m 50 213 l 268 213 l 268 0 l 162 -192 l 43 -190 l 119 0 l 50 0 "},"“":{"ha":606,"x_min":0,"x_max":0,"o":"m 42 556 l 42 769 l 149 961 l 266 959 l 190 769 l 259 769 l 259 556 m 339 556 l 339 769 l 445 961 l 564 959 l 487 769 l 557 769 l 557 556 "},"”":{"ha":606,"x_min":0,"x_max":0,"o":"m 42 556 l 117 746 l 49 746 l 49 959 l 266 959 l 266 746 l 160 554 m 339 556 l 415 746 l 347 746 l 347 959 l 564 959 l 564 746 l 457 554 "},"‘":{"ha":308,"x_min":0,"x_max":0,"o":"m 42 556 l 42 769 l 149 961 l 266 959 l 190 769 l 259 769 l 259 556 "},"’":{"ha":308,"x_min":0,"x_max":0,"o":"m 42 556 l 117 746 l 49 746 l 49 959 l 266 959 l 266 746 l 160 554 "},"«":{"ha":982,"x_min":0,"x_max":0,"o":"m 331 716 l 580 716 l 292 358 l 580 0 l 331 0 l 42 358 m 690 716 l 941 716 l 651 358 l 941 0 l 690 0 l 401 358 "},"»":{"ha":982,"x_min":0,"x_max":0,"o":"m 42 0 l 331 358 l 42 716 l 292 716 l 580 358 l 292 0 m 401 0 l 690 358 l 401 716 l 651 716 l 941 358 l 651 0 "},"‹":{"ha":623,"x_min":0,"x_max":0,"o":"m 331 716 l 580 716 l 292 358 l 580 0 l 331 0 l 42 358 "},"›":{"ha":623,"x_min":0,"x_max":0,"o":"m 42 0 l 331 358 l 42 716 l 292 716 l 580 358 l 292 0 "},"\"":{"ha":626,"x_min":0,"x_max":0,"o":"m 42 560 l 42 959 l 271 959 l 219 560 m 354 560 l 354 959 l 583 959 l 518 560 "},"'":{"ha":312,"x_min":0,"x_max":0,"o":"m 42 560 l 42 959 l 271 959 l 206 560 "},"₿":{"ha":922,"x_min":0,"x_max":0,"o":"m 881 275 b 583 1 881 109 757 13 l 583 -146 l 421 -146 l 421 0 l 362 0 l 362 -146 l 200 -146 l 200 0 l 83 0 l 83 959 l 200 959 l 200 1105 l 362 1105 l 362 959 l 421 959 l 421 1105 l 583 1105 l 583 956 b 866 684 750 942 866 845 b 747 500 866 591 810 531 l 747 491 b 881 275 816 460 881 389 m 649 679 b 507 785 649 750 607 785 l 301 785 l 301 571 l 507 571 b 649 679 607 571 649 607 m 507 175 b 663 289 614 175 663 218 b 507 405 663 361 614 405 l 301 405 l 301 175 "},"¢":{"ha":786,"x_min":0,"x_max":0,"o":"m 745 362 b 470 110 717 225 626 132 l 470 0 l 335 0 l 335 112 b 42 478 172 140 42 272 b 335 845 42 684 172 816 l 335 956 l 470 956 l 470 846 b 740 597 624 825 712 733 l 533 597 b 470 666 525 627 505 653 l 470 288 b 537 362 511 299 530 325 m 259 478 b 335 302 259 394 288 332 l 335 654 b 259 478 288 624 259 563 "},"¤":{"ha":682,"x_min":0,"x_max":0,"o":"m 116 182 l 70 231 l 147 311 b 96 465 116 354 96 407 b 145 616 96 523 115 574 l 70 694 l 116 742 l 190 663 b 339 716 232 696 284 716 b 487 663 395 716 447 696 l 566 743 l 611 696 l 533 616 b 581 465 564 574 581 521 b 531 312 581 407 563 354 l 613 229 l 566 182 l 485 265 b 339 215 444 233 394 215 b 195 265 285 215 235 233 m 341 341 b 460 467 405 341 460 397 b 341 590 460 536 405 590 b 218 467 272 590 218 536 b 341 341 218 397 272 341 "},"$":{"ha":868,"x_min":0,"x_max":0,"o":"m 843 292 b 530 -10 843 130 725 14 l 530 -172 l 338 -172 l 338 -4 b 27 301 156 30 39 146 l 252 301 b 457 160 266 205 334 160 b 621 268 561 160 621 196 b 430 404 621 355 536 381 b 42 689 261 440 42 475 b 338 966 42 859 182 944 l 338 1131 l 530 1131 l 530 964 b 812 683 682 934 800 833 l 587 683 b 421 799 573 757 536 799 b 263 707 321 799 263 765 b 493 588 263 631 369 614 b 843 292 654 553 843 493 "},"€":{"ha":926,"x_min":0,"x_max":0,"o":"m 387 523 b 385 480 385 508 385 494 b 387 437 385 465 385 451 l 843 437 l 843 305 l 417 305 b 621 175 454 222 523 175 l 790 175 l 790 0 l 621 0 b 189 305 395 0 245 117 l 70 305 l 70 437 l 168 437 b 166 480 166 451 166 465 b 168 523 166 494 166 508 l 70 523 l 70 654 l 189 654 b 621 959 245 842 395 959 l 790 959 l 790 785 l 621 785 b 417 654 523 785 454 737 l 843 654 l 843 523 "},"₣":{"ha":908,"x_min":0,"x_max":0,"o":"m 851 785 l 445 785 l 445 546 l 823 546 l 823 371 l 445 371 l 445 261 l 627 261 l 627 129 l 445 129 l 445 0 l 228 0 l 228 129 l 46 129 l 46 261 l 228 261 l 228 959 l 851 959 "},"₤":{"ha":716,"x_min":0,"x_max":0,"o":"m 308 175 l 789 175 l 789 0 l 70 0 l 70 175 b 222 289 129 175 196 218 l 70 289 l 70 411 l 223 411 b 208 450 219 424 213 437 l 70 450 l 70 571 l 136 571 b 106 689 119 606 106 643 b 470 974 106 826 221 974 b 810 697 654 974 783 881 l 600 697 b 468 799 594 755 561 799 b 316 680 359 799 316 740 b 352 571 316 644 332 609 l 692 571 l 692 450 l 417 450 l 430 411 l 692 411 l 692 289 l 418 289 b 308 183 398 243 358 206 "},"₽":{"ha":969,"x_min":0,"x_max":0,"o":"m 594 959 b 926 670 788 959 926 846 b 594 381 926 494 788 381 l 404 381 l 404 306 l 594 306 l 594 132 l 404 132 l 404 0 l 186 0 l 186 132 l 43 132 l 43 306 l 186 306 l 186 381 l 43 381 l 43 556 l 186 556 l 186 959 l 594 959 m 553 556 b 707 670 659 556 707 599 b 553 785 707 742 659 785 l 404 785 l 404 556 "},"₨":{"ha":845,"x_min":0,"x_max":0,"o":"m 789 851 l 597 851 b 656 726 626 816 646 775 l 789 726 l 789 616 l 654 616 b 348 382 624 483 485 382 l 332 382 l 332 374 l 368 351 l 693 0 l 411 0 l 83 381 l 83 556 l 286 556 b 430 616 362 556 408 577 l 83 616 l 83 726 l 428 726 b 286 785 408 763 362 785 l 83 785 l 83 961 l 789 961 "},"£":{"ha":888,"x_min":0,"x_max":0,"o":"m 308 175 l 789 175 l 789 0 l 70 0 l 70 175 b 232 351 145 175 232 242 b 228 394 232 367 231 381 l 70 394 l 70 515 l 169 515 b 106 689 137 566 106 617 b 470 974 106 826 221 974 b 810 697 654 974 783 881 l 600 697 b 468 799 594 755 561 799 b 316 680 359 799 316 740 b 384 515 316 627 351 573 l 692 515 l 692 394 l 432 394 b 435 364 434 384 435 374 b 308 183 435 286 384 218 "},"₩":{"ha":1611,"x_min":0,"x_max":0,"o":"m 1554 584 l 1386 584 l 1363 498 l 1554 498 l 1554 367 l 1330 367 l 1236 0 l 962 0 l 876 367 l 743 367 l 657 0 l 385 0 l 288 367 l 57 367 l 57 498 l 252 498 l 229 584 l 57 584 l 57 716 l 193 716 l 129 959 l 378 959 l 427 716 l 634 716 l 694 959 l 916 959 l 979 716 l 1188 716 l 1234 959 l 1482 959 l 1419 716 l 1554 716 m 452 584 l 470 498 l 581 498 l 603 584 m 773 498 l 846 498 l 826 584 l 793 584 m 1147 498 l 1164 584 l 1014 584 l 1037 498 m 543 342 l 548 367 l 497 367 l 501 342 l 520 238 l 523 238 m 1118 342 l 1123 367 l 1071 367 l 1077 342 l 1097 238 l 1100 238 "},"¥":{"ha":921,"x_min":0,"x_max":0,"o":"m 893 959 l 626 451 l 773 451 l 773 319 l 570 319 l 570 265 l 773 265 l 773 133 l 570 133 l 570 0 l 351 0 l 351 133 l 149 133 l 149 265 l 351 265 l 351 319 l 149 319 l 149 451 l 295 451 l 27 959 l 281 959 l 461 543 l 640 959 "},"+":{"ha":902,"x_min":0,"x_max":0,"o":"m 845 478 l 845 309 l 536 309 l 536 0 l 367 0 l 367 309 l 57 309 l 57 478 l 367 478 l 367 788 l 536 788 l 536 478 "},"−":{"ha":902,"x_min":0,"x_max":0,"o":"m 57 309 l 57 478 l 845 478 l 845 309 "},"×":{"ha":792,"x_min":0,"x_max":0,"o":"m 735 616 l 517 398 l 735 179 l 614 59 l 397 278 l 178 59 l 57 179 l 276 398 l 57 616 l 178 736 l 397 518 l 614 736 "},"÷":{"ha":902,"x_min":0,"x_max":0,"o":"m 342 587 l 342 757 l 561 757 l 561 587 m 57 309 l 57 478 l 845 478 l 845 309 m 342 30 l 342 200 l 561 200 l 561 30 "},"=":{"ha":765,"x_min":0,"x_max":0,"o":"m 70 611 l 694 611 l 694 437 l 70 437 m 70 339 l 694 339 l 694 165 l 70 165 "},"≠":{"ha":765,"x_min":0,"x_max":0,"o":"m 694 437 l 473 437 l 442 339 l 694 339 l 694 165 l 387 165 l 359 77 l 199 77 l 226 165 l 70 165 l 70 339 l 282 339 l 312 437 l 70 437 l 70 611 l 368 611 l 394 693 l 554 693 l 528 611 l 694 611 "},">":{"ha":707,"x_min":0,"x_max":0,"o":"m 70 812 l 637 554 l 637 364 l 70 106 l 70 319 l 473 460 l 70 599 "},"<":{"ha":707,"x_min":0,"x_max":0,"o":"m 637 812 l 637 599 l 235 460 l 637 319 l 637 106 l 70 364 l 70 554 "},"≥":{"ha":750,"x_min":0,"x_max":0,"o":"m 70 812 l 680 554 l 680 364 l 70 106 l 70 319 l 511 460 l 70 599 m 70 -86 l 70 66 l 680 66 l 680 -86 "},"≤":{"ha":750,"x_min":0,"x_max":0,"o":"m 680 812 l 680 599 l 239 460 l 680 319 l 680 106 l 70 364 l 70 554 m 70 -86 l 70 66 l 680 66 l 680 -86 "},"±":{"ha":750,"x_min":0,"x_max":0,"o":"m 452 544 l 687 544 l 687 369 l 452 369 l 452 135 l 284 135 l 284 369 l 49 369 l 49 544 l 284 544 l 284 779 l 452 779 m 49 -109 l 49 66 l 687 66 l 687 -109 "},"≈":{"ha":694,"x_min":0,"x_max":0,"o":"m 99 460 b 269 646 83 558 162 646 b 425 583 354 646 387 583 b 477 646 468 583 477 613 l 596 646 b 425 460 611 547 533 460 b 269 524 339 460 309 524 b 218 460 228 524 218 494 m 99 226 b 269 412 83 325 162 412 b 425 349 354 412 387 349 b 477 412 468 349 477 379 l 596 412 b 425 226 611 314 533 226 b 269 291 339 226 309 291 b 218 226 228 291 218 261 "},"~":{"ha":588,"x_min":0,"x_max":0,"o":"m 46 369 b 216 556 30 468 110 556 b 372 493 301 556 334 493 b 424 556 415 493 424 523 l 543 556 b 372 369 558 457 480 369 b 216 434 286 369 256 434 b 165 369 175 434 165 404 "},"¬":{"ha":819,"x_min":0,"x_max":0,"o":"m 750 561 l 750 149 l 576 149 l 576 387 l 70 387 l 70 561 "},"^":{"ha":620,"x_min":0,"x_max":0,"o":"m 564 659 l 385 659 l 309 873 l 235 659 l 56 659 l 233 1031 l 387 1031 "},"∅":{"ha":1153,"x_min":0,"x_max":0,"o":"m 938 805 b 1055 480 1011 717 1055 604 b 577 -14 1055 206 842 -14 b 261 107 455 -14 345 32 l 210 56 l 165 105 l 215 156 b 97 480 142 242 97 355 b 577 974 97 753 312 974 b 892 852 697 974 808 928 l 942 903 l 988 856 m 308 480 b 365 311 308 415 329 357 l 742 697 b 577 756 696 735 639 756 b 308 480 430 756 308 633 m 577 203 b 845 480 725 203 845 326 b 788 650 845 544 823 603 l 411 262 b 577 203 457 225 514 203 "},"∞":{"ha":1284,"x_min":0,"x_max":0,"o":"m 348 127 b 56 424 175 127 56 268 b 348 716 56 583 180 716 b 641 554 474 716 544 686 b 938 716 742 687 816 716 b 1229 422 1107 716 1229 578 b 938 127 1229 262 1108 127 b 641 289 813 127 739 162 b 348 127 541 156 470 127 m 902 291 b 1037 422 979 289 1037 351 b 902 551 1037 494 979 553 b 707 424 798 550 765 497 b 902 291 765 348 803 292 m 382 291 b 577 424 483 292 521 352 b 382 551 513 505 484 551 b 251 424 304 551 251 497 b 382 291 251 345 308 289 "},"∫":{"ha":720,"x_min":0,"x_max":0,"o":"m 27 -73 b 210 122 132 -73 175 -50 l 329 673 b 693 959 372 875 497 959 l 693 789 b 530 636 629 789 563 790 l 402 44 b 27 -243 359 -156 232 -243 "},"∏":{"ha":840,"x_min":0,"x_max":0,"o":"m 818 785 l 683 785 l 683 -172 l 465 -172 l 465 785 l 375 785 l 375 -172 l 158 -172 l 158 785 l 27 785 l 27 959 l 818 959 "},"∑":{"ha":746,"x_min":0,"x_max":0,"o":"m 676 959 l 676 785 l 305 785 l 599 394 l 305 32 l 676 32 l 676 -143 l 70 -143 l 70 32 l 362 394 l 70 785 l 70 959 "},"√":{"ha":1164,"x_min":0,"x_max":0,"o":"m 1108 785 l 858 785 l 566 -243 l 271 -243 l 56 275 l 288 275 l 412 -49 l 676 959 l 1108 959 "},"∂":{"ha":843,"x_min":0,"x_max":0,"o":"m 42 344 b 365 730 42 620 193 730 b 599 599 477 730 560 692 l 603 599 l 603 959 l 802 959 l 802 434 b 394 -14 802 190 672 -14 b 42 344 193 -14 42 136 m 259 358 b 421 160 259 238 314 160 b 581 358 528 160 581 238 b 421 556 581 478 528 556 b 259 358 314 556 259 478 "},"%":{"ha":1164,"x_min":0,"x_max":0,"o":"m 285 473 b 42 723 152 473 42 584 b 285 974 42 862 152 974 b 528 723 420 974 528 862 b 285 473 528 584 420 473 m 179 0 l 836 959 l 975 959 l 318 0 m 286 599 b 405 725 351 599 405 654 b 286 848 405 793 351 848 b 163 725 218 848 163 793 b 286 599 163 654 218 599 m 879 -14 b 636 236 746 -14 636 97 b 879 487 636 375 746 487 b 1123 236 1014 487 1123 375 b 879 -14 1123 97 1014 -14 m 881 112 b 999 238 946 112 999 168 b 881 361 999 306 946 361 b 759 238 812 361 759 306 b 881 112 759 168 812 112 "},"‰":{"ha":1715,"x_min":0,"x_max":0,"o":"m 285 473 b 42 723 152 473 42 584 b 285 974 42 862 152 974 b 528 723 420 974 528 862 b 285 473 528 584 420 473 m 179 0 l 836 959 l 975 959 l 318 0 m 286 599 b 405 725 351 599 405 654 b 286 848 405 793 351 848 b 163 725 218 848 163 793 b 286 599 163 654 218 599 m 879 -14 b 636 236 746 -14 636 97 b 879 487 636 375 746 487 b 1123 236 1014 487 1123 375 b 879 -14 1123 97 1014 -14 m 1430 -14 b 1187 236 1297 -14 1187 97 b 1430 487 1187 375 1297 487 b 1674 236 1565 487 1674 375 b 1430 -14 1674 97 1565 -14 m 881 112 b 999 238 946 112 999 168 b 881 361 999 306 946 361 b 759 238 812 361 759 306 b 881 112 759 168 812 112 m 1432 112 b 1551 238 1498 112 1551 168 b 1432 361 1551 306 1498 361 b 1310 238 1365 361 1310 306 b 1432 112 1310 168 1365 112 "},"↑":{"ha":974,"x_min":0,"x_max":0,"o":"m 399 0 l 399 626 l 391 626 b 195 421 331 548 284 513 l 72 544 l 487 959 l 902 544 l 779 421 b 583 626 690 513 643 548 l 574 626 l 574 0 "},"↗":{"ha":883,"x_min":0,"x_max":0,"o":"m 196 17 l 72 140 l 514 583 l 508 588 b 225 583 411 577 352 584 l 225 756 l 812 756 l 812 169 l 639 169 b 644 452 640 296 631 355 l 639 460 "},"→":{"ha":1103,"x_min":0,"x_max":0,"o":"m 616 29 l 493 150 b 697 347 584 239 620 288 l 697 355 l 72 355 l 72 530 l 697 530 l 697 538 b 493 736 620 600 584 647 l 616 859 l 1031 444 "},"↘":{"ha":883,"x_min":0,"x_max":0,"o":"m 225 140 l 225 315 b 508 308 352 312 411 321 l 514 315 l 72 757 l 195 881 l 637 438 l 644 444 b 637 727 631 541 640 600 l 812 727 l 812 140 "},"↓":{"ha":974,"x_min":0,"x_max":0,"o":"m 487 0 l 72 415 l 195 538 b 391 334 284 447 331 411 l 399 334 l 399 959 l 574 959 l 574 334 l 583 334 b 779 538 643 411 690 447 l 902 415 "},"↙":{"ha":883,"x_min":0,"x_max":0,"o":"m 72 140 l 72 727 l 246 727 b 239 444 243 600 252 541 l 246 438 l 689 881 l 812 757 l 369 315 l 375 308 b 659 315 473 321 531 312 l 659 140 "},"←":{"ha":1103,"x_min":0,"x_max":0,"o":"m 487 29 l 72 444 l 487 859 l 610 737 b 405 541 518 649 483 600 l 405 533 l 1031 533 l 1031 358 l 405 358 l 405 349 b 610 152 483 288 518 241 "},"↖":{"ha":885,"x_min":0,"x_max":0,"o":"m 689 17 l 246 460 l 241 452 b 246 169 252 355 243 296 l 72 169 l 72 756 l 659 756 l 660 583 b 377 588 533 584 473 576 l 371 583 l 813 140 "},"↔":{"ha":1523,"x_min":0,"x_max":0,"o":"m 72 431 l 487 846 l 610 725 b 405 528 518 636 483 587 l 405 520 l 1047 520 l 1047 528 b 842 725 969 587 934 636 l 965 846 l 1380 431 l 965 16 l 842 139 b 1047 336 934 228 969 275 l 1047 345 l 405 345 l 405 336 b 610 139 483 275 518 228 l 487 16 "},"↕":{"ha":974,"x_min":0,"x_max":0,"o":"m 487 -136 l 72 279 l 193 402 b 389 198 282 311 331 275 l 398 198 l 398 670 l 389 670 b 193 465 331 593 282 557 l 72 588 l 487 1004 l 902 588 l 779 465 b 581 670 690 557 643 593 l 573 670 l 573 198 l 581 198 b 779 402 643 275 690 311 l 902 279 "},"●":{"ha":1131,"x_min":0,"x_max":0,"o":"m 566 -14 b 72 480 292 -14 72 206 b 566 974 72 753 292 974 b 1060 480 839 974 1060 753 b 566 -14 1060 206 839 -14 "},"◊":{"ha":766,"x_min":0,"x_max":0,"o":"m 27 480 l 238 959 l 530 959 l 739 480 l 530 0 l 238 0 m 235 480 l 384 90 l 533 480 l 384 865 "},"■":{"ha":1103,"x_min":0,"x_max":0,"o":"m 72 959 l 1031 959 l 1031 0 l 72 0 "},"▲":{"ha":1217,"x_min":0,"x_max":0,"o":"m 609 959 l 1145 0 l 72 0 "},"@":{"ha":1343,"x_min":0,"x_max":0,"o":"m 683 -210 b 70 358 284 -210 70 39 b 683 974 70 730 358 974 b 1273 425 1007 974 1273 742 b 1012 87 1273 251 1193 87 b 845 196 902 87 869 147 l 836 196 b 643 87 819 162 747 87 b 374 389 514 87 374 205 b 634 690 374 573 514 690 b 777 629 693 690 747 663 l 786 629 l 786 674 l 942 674 l 942 314 b 1017 226 942 258 968 226 b 1121 405 1084 226 1121 282 b 683 816 1121 676 936 816 b 236 381 435 816 236 664 b 686 -53 236 73 474 -53 b 902 -6 762 -53 813 -42 l 902 -165 b 683 -210 859 -180 792 -210 m 662 221 b 786 389 742 221 786 294 b 662 557 786 485 742 557 b 536 389 580 557 536 485 b 662 221 536 294 580 221 "},"&":{"ha":909,"x_min":0,"x_max":0,"o":"m 868 571 l 868 405 l 759 405 l 759 0 l 374 0 b 42 275 180 0 42 99 b 175 491 42 389 106 460 l 175 500 b 56 684 112 531 56 591 b 388 959 56 861 195 959 l 540 959 l 540 785 l 415 785 b 273 679 315 785 273 750 b 415 571 273 607 315 571 l 540 571 l 540 716 l 759 716 l 759 571 m 540 175 l 540 405 l 415 405 b 259 289 308 405 259 361 b 415 175 259 218 308 175 "},"¶":{"ha":747,"x_min":0,"x_max":0,"o":"m 471 959 l 471 -146 l 336 -146 l 336 530 l 301 530 b 42 745 145 530 42 600 b 301 959 42 889 145 959 m 557 959 l 692 959 l 692 -146 l 557 -146 "},"§":{"ha":777,"x_min":0,"x_max":0,"o":"m 259 193 b 398 103 281 133 314 103 b 511 168 458 103 511 123 b 83 461 511 281 83 168 b 149 600 83 520 109 566 b 76 747 106 630 76 674 b 377 974 76 914 245 974 b 690 740 518 974 663 893 l 490 740 b 374 813 477 786 445 813 b 273 753 295 813 273 783 b 716 465 273 644 716 749 b 646 321 716 404 690 355 b 722 179 692 291 722 246 b 402 -57 722 23 588 -57 b 56 193 213 -57 83 30 m 281 467 b 398 399 281 430 332 414 b 504 454 455 401 504 411 b 364 537 504 508 441 523 b 281 467 299 531 281 494 "},"©":{"ha":1153,"x_min":0,"x_max":0,"o":"m 577 -14 b 97 480 312 -14 97 206 b 577 974 97 753 312 974 b 1055 480 842 974 1055 753 b 577 -14 1055 206 842 -14 m 577 56 b 987 480 802 57 987 246 b 577 903 987 714 802 903 b 168 480 352 903 168 714 b 577 56 168 246 352 57 m 581 222 b 335 480 438 222 335 329 b 581 737 335 630 438 737 b 815 561 707 737 788 676 l 683 561 b 581 627 669 604 634 627 b 474 480 514 627 474 573 b 581 332 474 387 514 332 b 684 401 636 332 673 358 l 816 401 b 581 222 793 286 709 222 "},"®":{"ha":1153,"x_min":0,"x_max":0,"o":"m 577 -14 b 97 480 312 -14 97 206 b 577 974 97 753 312 974 b 1055 480 842 974 1055 753 b 577 -14 1055 206 842 -14 m 577 56 b 987 480 802 57 987 246 b 577 903 987 714 802 903 b 168 480 352 903 168 714 b 577 56 168 246 352 57 m 385 229 l 385 730 l 636 730 b 809 578 736 730 809 672 b 646 428 809 495 727 428 l 637 428 l 637 424 l 657 412 l 826 229 l 679 229 l 508 428 l 498 428 l 498 229 m 498 520 l 614 520 b 694 578 669 520 694 541 b 614 639 694 617 669 639 l 498 639 "},"™":{"ha":995,"x_min":0,"x_max":0,"o":"m 424 959 l 424 852 l 296 852 l 296 501 l 169 501 l 169 852 l 42 852 l 42 959 m 802 959 l 954 959 l 954 501 l 828 501 l 828 712 l 843 805 l 840 798 l 745 501 l 656 501 l 558 798 l 557 800 l 573 712 l 573 501 l 445 501 l 445 959 l 597 959 l 700 650 "},"°":{"ha":570,"x_min":0,"x_max":0,"o":"m 285 480 b 42 723 152 480 42 591 b 285 966 42 855 152 966 b 528 723 420 966 528 855 b 285 480 528 591 420 480 m 286 610 b 398 725 347 610 398 663 b 286 836 398 785 347 836 b 170 725 222 836 170 785 b 286 610 170 663 222 610 "},"|":{"ha":301,"x_min":0,"x_max":0,"o":"m 70 -146 l 70 959 l 232 959 l 232 -146 "},"¦":{"ha":301,"x_min":0,"x_max":0,"o":"m 70 511 l 70 959 l 232 959 l 232 511 m 70 -146 l 70 302 l 232 302 l 232 -146 "},"†":{"ha":537,"x_min":0,"x_max":0,"o":"m 427 848 l 427 710 l 322 710 l 322 382 l 188 382 l 188 710 l 83 710 l 83 848 l 188 848 l 188 959 l 322 959 l 322 848 "},"‡":{"ha":510,"x_min":0,"x_max":0,"o":"m 427 710 l 322 710 l 322 631 l 427 631 l 427 494 l 322 494 l 322 382 l 188 382 l 188 494 l 83 494 l 83 631 l 188 631 l 188 710 l 83 710 l 83 848 l 188 848 l 188 959 l 322 959 l 322 848 l 427 848 "},"̈":{"ha":0,"x_min":0,"x_max":0,"o":"m -581 818 l -581 1031 l -364 1031 l -364 818 m -288 818 l -288 1031 l -70 1031 l -70 818 "},"̇":{"ha":0,"x_min":0,"x_max":0,"o":"m -286 818 l -286 1031 l -69 1031 l -69 818 "},"̀":{"ha":0,"x_min":0,"x_max":0,"o":"m -218 798 l -424 959 l -203 959 l -43 798 "},"́":{"ha":0,"x_min":0,"x_max":0,"o":"m -347 798 l -186 959 l 34 959 l -172 798 "},"̋":{"ha":0,"x_min":0,"x_max":0,"o":"m -725 798 l -593 959 l -372 959 l -550 798 m -438 798 l -306 959 l -86 959 l -263 798 "},"̂":{"ha":0,"x_min":0,"x_max":0,"o":"m -414 776 l -524 861 l -379 1018 l -241 1018 l -96 861 l -206 776 l -311 889 "},"̌":{"ha":0,"x_min":0,"x_max":0,"o":"m -414 1021 l -311 908 l -206 1021 l -96 936 l -241 779 l -379 779 l -524 936 "},"̆":{"ha":0,"x_min":0,"x_max":0,"o":"m -69 974 b -266 773 -69 871 -149 773 b -462 974 -382 773 -462 871 l -342 974 b -266 879 -342 919 -319 879 b -189 974 -213 879 -189 919 "},"̊":{"ha":0,"x_min":0,"x_max":0,"o":"m -200 773 b -332 909 -273 773 -332 835 b -200 1045 -332 984 -273 1045 b -69 909 -129 1045 -69 984 b -200 773 -69 835 -129 773 m -200 849 b -143 909 -169 849 -143 876 b -200 969 -143 942 -169 969 b -259 909 -233 969 -259 942 b -200 849 -259 876 -233 849 "},"̃":{"ha":0,"x_min":0,"x_max":0,"o":"m -525 838 b -382 1024 -547 936 -475 1024 b -226 961 -298 1024 -265 961 b -203 1024 -198 961 -196 977 l -83 1024 b -226 838 -62 925 -133 838 b -382 902 -312 838 -342 902 b -405 838 -410 902 -412 886 "},"̄":{"ha":0,"x_min":0,"x_max":0,"o":"m -538 959 l -89 959 l -89 822 l -538 822 "},"̒":{"ha":0,"x_min":0,"x_max":0,"o":"m -266 839 l -266 1052 l -159 1244 l -42 1243 l -117 1052 l -49 1052 l -49 839 "},"̦":{"ha":0,"x_min":0,"x_max":0,"o":"m -248 -483 l -172 -292 l -241 -292 l -241 -79 l -23 -79 l -23 -292 l -130 -484 "},"̧":{"ha":0,"x_min":0,"x_max":0,"o":"m -311 -122 b -163 -117 -243 -149 -163 -160 b -305 -87 -163 -77 -243 -77 l -238 19 l -84 19 l -130 -42 b -14 -140 -69 -42 -14 -86 b -324 -226 -14 -262 -215 -282 "},"̨":{"ha":0,"x_min":0,"x_max":0,"o":"m -193 -256 b -371 -117 -306 -256 -371 -196 b -272 23 -371 -73 -332 -13 l -59 0 b -180 -69 -112 -17 -180 -37 b -136 -99 -180 -92 -160 -99 b -42 -82 -106 -99 -67 -89 l -69 -233 b -193 -256 -107 -249 -156 -256 "},"¨":{"ha":651,"x_min":0,"x_max":0,"o":"m 70 818 l 70 1031 l 288 1031 l 288 818 m 364 818 l 364 1031 l 581 1031 l 581 818 "},"˙":{"ha":357,"x_min":0,"x_max":0,"o":"m 70 818 l 70 1031 l 288 1031 l 288 818 "},"`":{"ha":392,"x_min":0,"x_max":0,"o":"m 165 798 l -42 959 l 179 959 l 339 798 "},"´":{"ha":497,"x_min":0,"x_max":0,"o":"m 59 798 l 219 959 l 440 959 l 233 798 "},"˝":{"ha":783,"x_min":0,"x_max":0,"o":"m 59 798 l 190 959 l 411 959 l 233 798 m 345 798 l 477 959 l 697 959 l 520 798 "},"ˆ":{"ha":620,"x_min":0,"x_max":0,"o":"m 206 746 l 96 830 l 241 988 l 379 988 l 524 830 l 414 746 l 309 859 "},"ˇ":{"ha":620,"x_min":0,"x_max":0,"o":"m 206 1021 l 309 908 l 414 1021 l 524 936 l 379 779 l 241 779 l 96 936 "},"˘":{"ha":533,"x_min":0,"x_max":0,"o":"m 464 974 b 266 788 464 871 384 788 b 70 974 150 788 70 871 l 190 974 b 266 893 190 934 213 893 b 344 974 319 893 344 934 "},"˚":{"ha":402,"x_min":0,"x_max":0,"o":"m 202 773 b 70 909 129 773 70 835 b 202 1045 70 984 129 1045 b 334 909 273 1045 334 984 b 202 773 334 835 273 773 m 202 849 b 259 909 233 849 259 876 b 202 969 259 942 233 969 b 143 909 169 969 143 942 b 202 849 143 876 169 849 "},"˜":{"ha":609,"x_min":0,"x_max":0,"o":"m 83 838 b 226 1024 62 936 133 1024 b 382 961 311 1024 344 961 b 405 1024 411 961 412 977 l 525 1024 b 382 838 547 925 475 838 b 226 902 296 838 266 902 b 203 838 199 902 196 886 "},"¯":{"ha":609,"x_min":0,"x_max":0,"o":"m 70 959 l 520 959 l 520 822 l 70 822 "},"¸":{"ha":339,"x_min":0,"x_max":0,"o":"m 29 -122 b 176 -117 96 -149 176 -160 b 34 -87 176 -77 96 -77 l 102 19 l 255 19 l 209 -42 b 325 -140 271 -42 325 -86 b 16 -226 325 -262 125 -282 "},"˛":{"ha":415,"x_min":0,"x_max":0,"o":"m 222 -256 b 44 -117 109 -256 44 -196 b 137 26 44 -73 77 -10 l 357 0 b 235 -69 304 -17 235 -37 b 279 -99 235 -92 255 -99 b 374 -82 309 -99 348 -89 l 347 -233 b 222 -256 308 -249 259 -256 "}}}
